<ttFont>
          <CharString index="0">
            rmoveto
            -61 hlineto
            -110 -477 rlineto
            -7 -26 -4 -36 -24 vvcurveto
            -98 78 -44 118 151 70 73 142 33 vhcurveto
            113 490 -52 callgsubr
            -113 -489 rlineto
            -106 -24 -49 -54 -115 hhcurveto
            -85 -54 26 67 21 4 29 6 24 hvcurveto
            return
          </CharString>
          <CharString index="1">
            189 -237 rmoveto
            158 94 88 94 75 -43 29 -110 13 hvcurveto
            -69 9 -23 6 25 vvcurveto
            29 35 44 0 vhcurveto
            0 19 -2 11 145 66 114 87 34 -8 22 -11 17 vhcurveto
            97 hlineto
            12 53 -148 -6 rlineto
            0 -38 16 -52 -130 -70 -111 -92 -60 24 -38 45 -20 vhcurveto
            0 -53 -54 -44 vvcurveto
            -19 6 -13 9 -9 vhcurveto
            -58 -31 -77 -49 -77 vvcurveto
            -79 65 -51 104 vhcurveto
            88 247 rmoveto
            76 -8 29 -15 -46 vvcurveto
            -77 -89 -49 -99 -78 -38 39 52 49 60 46 51 26 vhcurveto
            13 -5 28 -6 47 -6 rrcurveto
            -8 214 rmoveto
            -65 -22 35 51 62 48 86 90 70 25 -31 -60 -52 -43 -91 -103 hvcurveto
            return
          </CharString>
          <CharString index="2">
            -86 callgsubr
            -103 callgsubr
            return
          </CharString>
          <CharString index="3">
            rmoveto
            -8 -47 rlineto
            0 51 8 44 37 10 -13 -25 -6 vhcurveto
            -29 -7 -29 -22 -20 hhcurveto
            -65 hlineto
            -11 -47 rlineto
            65 hlineto
            30 19 -11 -38 -10 hvcurveto
            -28 -7 -21 -19 -38 hhcurveto
            -46 -54 8 0 hvcurveto
            -15 -47 rlineto
            0 58 -11 49 66 47 30 66 16 vhcurveto
            13 54 -16 13 -29 10 5 3 44 20 13 53 rrcurveto
            57 14 -27 25 -69 hhcurveto
            -43 -60 -10 0 hvcurveto
            return
          </CharString>
          <CharString index="4">
            13 55 rlineto
            -321 hlineto
            63 272 rlineto
            265 -73 callsubr
            -266 hlineto
            60 258 rlineto
            321 -73 callsubr
            -383 hlineto
            endchar
          </CharString>
          <CharString index="5">
            rmoveto
            0 -46 9 -37 -83 -51 -45 -122 -31 vhcurveto
            -112 -28 28 -52 74 hhcurveto
            73 45 39 73 18 hvcurveto
            63 16 -23 39 -70 hhcurveto
            -22 -28 -9 -7 -18 hvcurveto
            61 16 28 24 44 hhcurveto
            36 45 -7 0 hvcurveto
            -118 -109 rmoveto
            40 9 -15 -41 -10 hvcurveto
            -35 -9 -20 -27 -41 hhcurveto
            -42 -6 37 62 15 hvcurveto
            1 33 18 31 vhcurveto
            endchar
          </CharString>
          <CharString index="6">
            rmoveto
            12 49 rlineto
            -134 hlineto
            83 68 49 38 31 31 12 47 rlinecurve
            60 15 -24 28 -66 hhcurveto
            -42 -60 -12 0 hvcurveto
            -10 -49 rlineto
            0 58 10 31 30 20 -11 -30 -8 vhcurveto
            -8 -34 -28 -24 -38 -30 -115 -93 rcurveline
            -12 -48 rlineto
            endchar
          </CharString>
          <CharString index="7">
            rmoveto
            53 hlineto
            13 51 rlineto
            30 hlineto
            12 50 10 callsubr
            22 87 11 callgsubr
            -26 -87 rlineto
            -84 hlineto
            130 211 -54 callsubr
            -130 -215 -12 -46 rlineto
            143 hlineto
            endchar
          </CharString>
          <CharString index="8">
            rmoveto
            -53 -175 42 -5 rlineto
            0 31 18 32 28 16 -12 -40 -11 vhcurveto
            -39 -9 -27 -19 -31 hhcurveto
            -41 -51 11 0 hvcurveto
            -17 -47 rlineto
            0 54 -13 47 64 48 28 80 21 vhcurveto
            72 17 -35 27 -53 hhcurveto
            -36 -28 -18 0 hvcurveto
            27 83 rlineto
            136 hlineto
            11 49 rlineto
            endchar
          </CharString>
          <CharString index="9">
            rmoveto
            -293 -158 -120 -336 -79 hvcurveto
            -214 -51 26 -249 351 hhcurveto
            45 95 10 0 hvcurveto
            10 54 rlineto
            0 -99 -9 -37 -299 -35 188 220 54 vhcurveto
            289 71 135 113 253 hhcurveto
            291 24 -160 -198 -45 hvcurveto
            -226 -53 -49 -34 -66 hhcurveto
            -36 -20 5 39 1 hvcurveto
            1 56 70 292 12 47 rrcurveto
            11 -59 -86 13 -38 hhcurveto
            -139 -81 -109 -192 -34 hvcurveto
            -15 -87 -12 -133 138 1 rrcurveto
            62 89 39 20 40 hvcurveto
            -44 7 35 -15 53 hhcurveto
            102 70 41 266 63 hvcurveto
            229 55 -49 193 -320 hhcurveto
            -193 -673 rmoveto
            -80 -2 84 78 17 hvcurveto
            154 32 50 95 108 hhcurveto
            42 49 -8 -7 26 hvcurveto
            -28 -117 -42 -190 -3 -34 -39 -21 -72 -35 -58 1 rrcurveto
            endchar
          </CharString>
          <CharString index="10">
            533 47 rmoveto
            -70 -24 33 57 -1 hvcurveto
            -1 25 5 30 8 33 314 -2 rcurveline
            13 48 rlineto
            10 36 4 34 33 vvcurveto
            93 -2 -49 42 -91 hhcurveto
            -69 -61 -25 -56 -43 hvcurveto
            53 -7 -44 28 -58 hhcurveto
            -73 -112 -13 0 hvcurveto
            -9 -57 rlineto
            0 110 11 69 95 -28 -98 -48 -16 vhcurveto
            -50 -3 -52 -5 -53 -8 -92 -14 -68 -34 -19 -98 rrcurveto
            -78 -16 24 -74 88 hhcurveto
            64 106 32 24 57 hvcurveto
            -36 20 41 -20 64 hhcurveto
            75 104 14 0 hvcurveto
            11 52 rlineto
            0 -106 -9 -68 vhcurveto
            -350 -1 rmoveto
            -56 -6 55 42 11 hvcurveto
            14 57 38 26 57 9 42 6 50 5 60 6 -12 -56 -14 -53 11 -53 rrcurveto
            -18 -51 -90 -26 -54 hhcurveto
            278 230 rmoveto
            126 30 58 52 87 hhcurveto
            63 32 -27 -62 1 hvcurveto
            1 -25 -5 -30 -9 -36 rrcurveto
            return
          </CharString>
          <CharString index="11">
            vstem
            358 510 rmoveto
            -180 -83 -182 -191 -94 49 -53 104 60 68 21 0 hvcurveto
            3 10 callgsubr
            -74 -16 -39 -80 -30 37 67 152 62 158 138 44 62 -11 0 vhcurveto
            15 10 callgsubr
            -65 16 -54 vhcurveto
            return
          </CharString>
          <CharString index="12">
            rmoveto
            -54 -10 17 -41 59 hhcurveto
            60 50 46 65 4 hvcurveto
            48 4 -23 31 -48 hhcurveto
            -60 -43 -45 -50 -10 hvcurveto
            39 hmoveto
            29 7 27 23 30 hhcurveto
            29 15 -26 -26 -7 hvcurveto
            -30 -7 -26 -24 -30 hhcurveto
            -30 -14 28 26 6 hvcurveto
            return
          </CharString>
          <CharString index="13">
            8 -413 rlineto
            111 hlineto
            232 500 -14 callsubr
            -208 -448 rlineto
            -18 hlineto
            -10 438 rlineto
            -72 hlineto
            -217 -438 rlineto
            -17 hlineto
            3 448 rlineto
            return
          </CharString>
          <CharString index="14">
            rmoveto
            66 hlineto
            105 86 61 -86 -9 callsubr
            -97 134 rlineto
            return
          </CharString>
          <CharString index="15">
            rmoveto
            0 -62 -48 -19 vhcurveto
            -30 -62 58 -47 hhcurveto
            -35 -67 -59 0 hvcurveto
            2 -44 rlineto
            0 67 51 21 vhcurveto
            31 65 -59 43 hhcurveto
            33 63 59 0 hvcurveto
            return
          </CharString>
          <CharString index="16">
            rmoveto
            13 53 rlineto
            -149 hlineto
            38 153 8 callgsubr
            -37 -153 rlineto
            -68 hlineto
            -13 -53 rlineto
            68 hlineto
            -61 -261 rlineto
            -8 -32 -9 -39 -33 vvcurveto
            -59 37 -33 63 42 52 12 0 vhcurveto
            4 47 rlineto
            0 -54 -6 -26 -39 -16 20 31 24 6 35 7 30 vhcurveto
            62 264 rlineto
            return
          </CharString>
          <CharString index="17">
            100 50 53 80 23 hvcurveto
            -52 hlineto
            -48 -13 -33 -36 -60 hhcurveto
            -58 -20 36 48 12 hvcurveto
            endchar
          </CharString>
          <CharString index="18">
            -25 callsubr
            56 hlineto
            -87 -2 callsubr
            -31 hlineto
            endchar
          </CharString>
          <CharString index="19">
            rmoveto
            220 88 -9 52 -42 callgsubr
            return
          </CharString>
          <CharString index="20">
            rmoveto
            -112 -42 42 112 136 53 192 107 83 hvcurveto
            return
          </CharString>
          <CharString index="21">
            35 -55 rmoveto
            32 hlineto
            13 -395 rlineto
            -247 hlineto
            return
          </CharString>
          <CharString index="22">
            rmoveto
            51 -27 23 -36 14 vhcurveto
            71 24 31 31 19 85 6 24 11 68 5 26 rrcurveto
            hintmask 11010000
            17 79 37 43 96 5 10 55 rcurveline
            -119 -5 -57 -44 -33 -104 -9 -28 -11 -71 -8 -39 -14 -68 -19 -30 -91 -24 -12 -50 rcurveline
            50 -17 23 -20 -44 -38 -48 -121 -61 vvcurveto
            -72 46 -38 95 -3 vhcurveto
            15 56 rlineto
            -66 -30 25 49 hvcurveto
            57 48 121 41 vvcurveto
            endchar
          </CharString>
          <CharString index="23">
            rmoveto
            -90 68 -35 92 65 88 25 0 vhcurveto
            3 50 rlineto
            0 -86 -19 -58 -66 -42 18 54 76 34 33 106 85 vhcurveto
            hintmask 1011110001100000
            61 47 33 42 9 46 rrcurveto
            hintmask 1011101001100000
            5 26 2 29 0 vvcurveto
            -57 hlineto
            hintmask 1011110001100000
            -8 -39 -7 -33 -25 -35 -50 -40 rlinecurve
            -129 -102 -38 -37 -101 vvcurveto
            353 579 rmoveto
            -61 hlineto
            hintmask 1011100011100000
            -23 -103 rlineto
            62 hlineto
            endchar
          </CharString>
          <CharString index="24">
            29 62 -49 37 hhcurveto
            34 54 48 0 hvcurveto
            return
          </CharString>
          <CharString index="25">
            136 53 192 107 83 vhcurveto
            -79 callsubr
          </CharString>
          <CharString index="26">
            rmoveto
            15 -40 86 50 -63 -253 rlineto
            54 hlineto
            77 312 rlineto
            -51 hlineto
            return
          </CharString>
          <CharString index="27">
            -21 -97 rlineto
            58 hlineto
            116 500 rlineto
            return
          </CharString>
          <CharString index="28">
            26 33 39 14 43 hhcurveto
            -105 callsubr
            endchar
          </CharString>
          <CharString index="29">
            rmoveto
            349 hlineto
            -7 -28 -471 -522 -21 -90 rlineto
            416 -73 callsubr
            -350 hlineto
            6 24 472 523 22 93 rlineto
            -416 hlineto
            endchar
          </CharString>
          <CharString index="30">
            62 hlineto
            -81 278 rlineto
            79 18 105 74 165 vvcurveto
            117 -60 43 -112 vhcurveto
            -216 4 callgsubr
            63 270 rlineto
            182 hlineto
            178 263 rmoveto
            -123 -73 -86 -113 vhcurveto
            -162 hlineto
            73 317 rlineto
            159 hlineto
            80 36 -28 -80 hvcurveto
            endchar
          </CharString>
          <CharString index="31">
            vvcurveto
            -37 23 -23 45 29 42 9 0 vhcurveto
            return
          </CharString>
          <CharString index="32">
            -61 -41 35 65 25 5 38 7 29 return
          </CharString>
          <CharString index="33">
            rmoveto
            -182 hlineto
            -63 -270 -14 callsubr
            -20 callgsubr
            216 hlineto
            112 60 -43 -117 -165 -105 -74 -79 -18 hvcurveto
            81 -278 -52 callgsubr
            101 533 rmoveto
            80 -36 28 -80 vhcurveto
            -159 hlineto
            -73 -317 rlineto
            162 hlineto
            113 73 86 123 hvcurveto
            return
          </CharString>
          <CharString index="34">
            hlineto
            13 55 rlineto
            return
          </CharString>
          <CharString index="35">
            61 hlineto
            161 -33 callgsubr
            endchar
          </CharString>
          <CharString index="36">
            -8 callsubr
            673 22 16 16 25 8 31 rlinecurve
            67 16 -34 29 -56 hhcurveto
            -59 -45 -32 -64 -17 hvcurveto
            -9 -32 4 -25 16 -17 rrcurveto
            47 -31 rmoveto
            32 hlineto
            13 -395 rlineto
            -247 hlineto
            return
          </CharString>
          <CharString index="37">
            -147 -104 -167 -194 return
          </CharString>
          <CharString index="38">
            99 21 -21 322 55 hstem
            81 61 99 62 179 62 99 61 vstem
            482 hmoveto
            62 hlineto
            -20 callgsubr
            -61 hlineto
            -74 -318 rlineto
            -340 hlineto
            74 318 rlineto
            -62 4 callgsubr
            74 322 rlineto
            340 hlineto
            return
          </CharString>
          <CharString index="39">
            0 -74 17 -63 -158 -91 -210 -170 -93 42 -46 80 93 81 108 0 vhcurveto
            -22 -98 rlineto
            58 hlineto
            -19 172 rmoveto
            0 -99 -129 -74 -53 -25 31 55 133 66 195 121 59 67 -15 12 callgsubr
          </CharString>
          <CharString index="40">
            rmoveto
            67 16 -34 29 -56 hhcurveto
            -59 -45 -32 -64 -17 hvcurveto
            -60 -17 31 -35 60 hhcurveto
            64 42 36 59 15 hvcurveto
            -154 hmoveto
            -40 callsubr
            -33 -8 -26 -19 -36 hhcurveto
            -38 -12 23 29 7 hvcurveto
            return
          </CharString>
          <CharString index="41">
            790 -88 callsubr
            return
          </CharString>
          <CharString index="42">
            rmoveto
            -29 -47 177 -88 28 41 rlineto
            return
          </CharString>
          <CharString index="43">
            0 -35 -6 -16 -18 -10 8 14 return
          </CharString>
          <CharString index="44">
            -70 -304 rlineto
            59 hlineto
            70 298 rlineto
            endchar
          </CharString>
          <CharString index="45">
            -147 -99 -78 -141 -92 57 -29 101 -32 return
          </CharString>
          <CharString index="46">
            0 13 97 15 63 vhcurveto
            return
          </CharString>
          <CharString index="47">
            -265 -71 55 711 -20 hstem
            149 60 73 61 vstem
            343 695 rmoveto
            -61 hlineto
            -133 -574 -27 -118 -15 -18 -90 -1 rlinecurve
            -10 -55 rlineto
            147 20 31 154 35 hvcurveto
            return
          </CharString>
          <CharString index="48">
            820 rmoveto
            48 hlineto
            20 83 11 callgsubr
            166 -83 rmoveto
            49 hlineto
            return
          </CharString>
          <CharString index="49">
            -87 callsubr
            hintmask 10110000
            -7 callgsubr
            hintmask 01110000
            -61 callgsubr
            return
          </CharString>
          <CharString index="50">
            rmoveto
            -2 -500 rlineto
            109 hlineto
            202 413 return
          </CharString>
          <CharString index="51">
            rmoveto
            0 -54 -41 -19 vhcurveto
            return
          </CharString>
          <CharString index="52">
            62 hlineto
            -44 callgsubr
            return
          </CharString>
          <CharString index="53">
            rlineto
            -59 hlineto
            return
          </CharString>
          <CharString index="54">
            rmoveto
            49 1 callsubr
            -49 hlineto
            160 -82 rmoveto
            48 1 callsubr
            -49 hlineto
            endchar
          </CharString>
          <CharString index="55">
            -21 191 54 395 55 -34 -21 55 -20 hstemhm
            27 62 return
          </CharString>
          <CharString index="56">
            58 13 -40 18 -53 hhcurveto
            -5 hlineto
            return
          </CharString>
          <CharString index="57">
            rmoveto
            hintmask 11000000
            0 224 313 326 vvcurveto
            149 -20 84 0 vhcurveto
            hintmask 10100000
            -56 hlineto
            0 14 -91 -142 vvcurveto
            -305 -220 -334 12 callgsubr
          </CharString>
          <CharString index="58">
            -113 rmoveto
            88 128 rlineto
            -17 32 44 -8 55 hhcurveto
            -31 callsubr
            65 -15 49 -31 34 vhcurveto
            89 130 return
          </CharString>
          <CharString index="59">
            vstem
            142 500 -95 callgsubr
            return
          </CharString>
          <CharString index="60">
            7 callgsubr
            148 640 -58 callgsubr
            endchar
          </CharString>
          <CharString index="61">
            -328 21 -21 500 -20 return
          </CharString>
          <CharString index="62">
            hstem
            155 500 rmoveto
            340 hlineto
            -11 -52 -363 -396 rlineto
            271 hlineto
            -12 -52 rlineto
            -341 hlineto
            9 52 362 395 rlineto
            -269 hlineto
            return
          </CharString>
          <CharString index="63">
            rmoveto
            0 -65 -48 -37 vhcurveto
            -46 -97 66 -56 hhcurveto
            -54 -62 -54 0 hvcurveto
            11 -51 rlineto
            0 65 49 40 vhcurveto
            42 100 -66 57 hhcurveto
            53 60 54 0 hvcurveto
            return
          </CharString>
          <CharString index="64">
            -31 11 -21 467 52 return
          </CharString>
          <CharString index="65">
            rmoveto
            269 hlineto
            -362 -395 -9 -52 rlineto
            341 hlineto
            12 52 rlineto
            -271 hlineto
            363 396 11 52 rlineto
            -340 hlineto
            endchar
          </CharString>
          <CharString index="66">
            228 102 281 208 144 -61 62 -122 hvcurveto
            -225 hlineto
            return
          </CharString>
          <CharString index="67">
            34 8 26 19 35 hhcurveto
            33 18 -20 -33 -7 hvcurveto
            return
          </CharString>
          <CharString index="68">
            -31 0 44 -33 -21 510 -20 return
          </CharString>
          <CharString index="69">
            61 hlineto
            23 100 -14 callsubr
            return
          </CharString>
          <CharString index="70">
            -21 145 -20 return
          </CharString>
          <CharString index="71">
            rmoveto
            52 18 callgsubr
            -51 hlineto
            endchar
          </CharString>
          <CharString index="72">
            -97 -27 callgsubr
            return
          </CharString>
          <CharString index="73">
            -160 -2 callgsubr
            return
          </CharString>
          <CharString index="74">
            68 hmoveto
            -26 -113 -10 -12 -124 -63 20 -49 rcurveline
            151 70 14 17 35 150 116 500 rcurveline
            -60 hlineto
            return
          </CharString>
          <CharString index="75">
            rmoveto
            -204 -869 rlineto
            186 hlineto
            14 53 rlineto
            -127 hlineto
            179 763 rlineto
            127 hlineto
            12 53 rlineto
            endchar
          </CharString>
          <CharString index="76">
            69 61 23 40 48 hvcurveto
            113 93 54 182 170 vvcurveto
            return
          </CharString>
          <CharString index="77">
            8 -191 -30 callgsubr
            -23 -24 callsubr
            -126 hlineto
            -86 callsubr
            endchar
          </CharString>
          <CharString index="78">
            -73 -203 -21 276 -20 468 -20 return
          </CharString>
          <CharString index="79">
            104 215 -52 callgsubr
            -88 -215 rlineto
            return
          </CharString>
          <CharString index="80">
            -61 -237 52 358 51 234 52 return
          </CharString>
          <CharString index="81">
            rmoveto
            50 hlineto
            17 78 11 callgsubr
            return
          </CharString>
          <CharString index="82">
            97 92 7 callsubr
            return
          </CharString>
          <CharString index="83">
            695 rlineto
            return
          </CharString>
          <CharString index="84">
            48 -10 55 -34 -21 55 -20 276 53 296 55 return
          </CharString>
          <CharString index="85">
            59 hlineto
            167 722 -54 callsubr
            return
          </CharString>
          <CharString index="86">
            -20 20 55 272 55 258 55 return
          </CharString>
          <CharString index="87">
            -318 21 -21 722 -20 hstem
            74 59 vstem
            74 hmoveto
            -22 callsubr
            return
          </CharString>
          <CharString index="88">
            152 62 158 138 44 62 -11 0 vhcurveto
            15 10 callgsubr
            -65 16 -54 vhcurveto
            endchar
          </CharString>
          <CharString index="89">
            59 hlineto
            60 256 rlineto
            9 38 11 51 42 vvcurveto
            return
          </CharString>
          <CharString index="90">
            -21 51 50 211 -20 return
          </CharString>
          <CharString index="91">
            -60 -256 rlineto
            return
          </CharString>
          <CharString index="92">
            -78 callgsubr
            endchar
          </CharString>
          <CharString index="93">
            rlineto
            -61 hlineto
            return
          </CharString>
          <CharString index="94">
            49 118 47 117 -20 hstem
            return
          </CharString>
          <CharString index="95">
            -161 -20 95 38 return
          </CharString>
          <CharString index="96">
            3 callgsubr
            -17 callgsubr
            -3 callsubr
            return
          </CharString>
          <CharString index="97">
            65 hlineto
            -123 344 283 351 rlineto
            -70 hlineto
            -262 -325 -98 -2 return
          </CharString>
          <CharString index="98">
            rlineto
            56 hlineto
            return
          </CharString>
          <CharString index="99">
            27 hmoveto
            -1 callsubr
            return
          </CharString>
          <CharString index="100">
            -54 -46 callgsubr
            59 hlineto
            return
          </CharString>
          <CharString index="101">
            49 110 48 65 49 hstem
            return
          </CharString>
          <CharString index="102">
            50 69 46 118 48 hstem
            return
          </CharString>
          <CharString index="103">
            20 83 rlineto
            -49 hlineto
            return
          </CharString>
          <CharString index="104">
            20 1 callgsubr
            return
          </CharString>
          <CharString index="105">
            145 rlineto
            return
          </CharString>
          <CharString index="106">
            -55 callsubr
            -23 return
          </CharString>
          <CharString index="107">
            -20 hstem
            236 60 152 61 vstem
            return
          </CharString>
          <CharString index="108">
            hlineto
            19 callgsubr
            return
          </CharString>
          <CharString index="109">
            rmoveto
            -70 callsubr
            return
          </CharString>
          <CharString index="110">
            100 0 0 61 -20 654 -20 return
          </CharString>
          <CharString index="111">
            hlineto
            19 1 callgsubr
            return
          </CharString>
          <CharString index="112">
            50 96 47 89 49 hstem
            return
          </CharString>
          <CharString index="113">
            hstemhm
            100 61 206 58 return
          </CharString>
          <CharString index="114">
            54 -92 rlineto
            return
          </CharString>
          <CharString index="115">
            54 221 rlineto
            hintmask 0111001010000000
            -57 hlineto
            -51 -221 rlineto
            return
          </CharString>
          <CharString index="116">
            89 63 -52 -21 267 56 13 -20 hstemhm
            228 50 return
          </CharString>
          <CharString index="117">
            rlineto
            -30 hlineto
            return
          </CharString>
          <CharString index="118">
            rmoveto
            56 hlineto
            return
          </CharString>
          <CharString index="119">
            30 0 191 -170 -21 191 -20 524 return
          </CharString>
          <CharString index="120">
            345 509 2 callsubr
            return
          </CharString>
          <CharString index="121">
            rmoveto
            246 hlineto
            14 56 rlineto
            -246 hlineto
            endchar
          </CharString>
          <CharString index="122">
            rmoveto
            23 callgsubr
          </CharString>
          <CharString index="123">
            rlineto
            -202 hlineto
            return
          </CharString>
          <CharString index="124">
            62 97 110 return
          </CharString>
          <CharString index="125">
            0 -93 26 -87 return
          </CharString>
          <CharString index="126">
            hlineto
            -45 -184 -9 callsubr
            45 184 rlineto
            return
          </CharString>
          <CharString index="127">
            166 -83 rmoveto
            49 hlineto
            -4 callsubr
            return
          </CharString>
          <CharString index="128">
            192 -8 callgsubr
            -46 -194 -163 2 return
          </CharString>
          <CharString index="129">
            hlineto
            47 183 -8 callgsubr
            -47 -183 rlineto
            return
          </CharString>
          <CharString index="130">
            -70 callgsubr
            endchar
          </CharString>
          <CharString index="131">
            -21 312 -20 hstem
            return
          </CharString>
          <CharString index="132">
            -21 269 52 hstem
            return
          </CharString>
          <CharString index="133">
            49 221 51 hstem
            return
          </CharString>
          <CharString index="134">
            53 763 53 hstem
            return
          </CharString>
          <CharString index="135">
            56 123 56 vstem
            return
          </CharString>
          <CharString index="136">
            52 162 48 -34 52 hstemhm
            126 60 return
          </CharString>
          <CharString index="137">
            271 54 hstem
            124 325 rmoveto
            -54 return
          </CharString>
          <CharString index="138">
            0 0 56 266 43 318 21 hstemhm
            return
          </CharString>
          <CharString index="139">
            -12 callgsubr
            endchar
          </CharString>
        <CharString name=".notdef">
          -302 endchar
        </CharString>
        <CharString name=".null">
          -525 endchar
        </CharString>
        <CharString name="A">
          30 21 -52 callsubr
          381 61 hintmask 11011110
          27 hmoveto
          62 hlineto
          -80 callgsubr
          hintmask 11100110
          -86 callsubr
          endchar
        </CharString>
        <CharString name="AE">
          -82 callgsubr
          endchar
        </CharString>
        <CharString name="AEacute">
          -82 callgsubr
          348 543 -88 callsubr
          endchar
        </CharString>
        <CharString name="Aacute">
          30 21 -52 callsubr
          192 57 132 61 hintmask 11011111
          396 -66 callsubr
          -361 -835 rmoveto
          62 hlineto
          -80 callgsubr
          hintmask 11100111
          -86 callsubr
          endchar
        </CharString>
        <CharString name="Abreve">
          30 21 -21 191 54 395 55 -34 -21 55 -20 123 48 hstemhm
          27 62 264 53 64 61 39 53 hintmask 1101111111000000
          353 921 rmoveto
          -93 callgsubr
          -379 -921 rmoveto
          62 hlineto
          -80 callgsubr
          hintmask 1110011111000000
          -86 callsubr
          endchar
        </CharString>
        <CharString name="Acircumflex">
          30 0 883 -862 -21 818 -21 134 -20 hstemhm
          311 66 125 97 hintmask 01111100
          311 797 rmoveto
          66 hlineto
          hintmask 10011100
          105 86 rlineto
          hintmask 01111100
          61 -86 -9 callsubr
          -97 134 10 callsubr
          -445 -931 rmoveto
          62 hlineto
          hintmask 11011100
          99 191 rlineto
          274 hlineto
          -30 callsubr
        </CharString>
        <CharString name="Adieresis">
          30 0 903 -882 -21 191 712 -62 -21 83 -20 hstemhm
          349 48 136 49 hintmask 01011110
          349 -59 callsubr
          20 83 rlineto
          -49 hlineto
          hintmask 10000110
          -526 -903 rmoveto
          62 hlineto
          hintmask 01100110
          -69 callgsubr
          hintmask 10000110
          -30 callsubr
        </CharString>
        <CharString name="Agrave">
          30 21 -52 callsubr
          180 56 145 61 hintmask 11011111
          358 -68 callgsubr
          -506 -830 rmoveto
          62 hlineto
          -80 callgsubr
          hintmask 11100111
          -86 callsubr
          endchar
        </CharString>
        <CharString name="Amacron">
          12 callsubr
          186 -25 -21 hstemhm
          27 62 233 284 hintmask 01101110
          322 835 rmoveto
          284 hlineto
          hintmask 01110110
          12 46 -11 callgsubr
          hintmask 10001110
          -305 -881 -1 callgsubr
          hintmask 10010110
          -23 -24 callsubr
          -126 hlineto
          -86 callsubr
          endchar
        </CharString>
        <CharString name="Aogonek">
          30 6 callgsubr
          30 -52 callsubr
          279 66 36 61 hintmask 1011011111000000
          27 hmoveto
          62 hlineto
          -26 callgsubr
          -188 rlineto
          -37 -31 -65 -65 -49 -72 callgsubr
          38 62 63 32 25 vhcurveto
          3 2 hlineto
          1 1 rlineto
          -1 hlineto
          -23 692 rlineto
          -126 hlineto
          hintmask 1101100111000000
          -86 callsubr
          endchar
        </CharString>
        <CharString name="Aring">
          30 callgsubr
          hstemhm
          400 154 -74 74 hintmask 10010100
          -71 callsubr
          hintmask 01101000
          185 500 -36 callgsubr
        </CharString>
        <CharString name="Aringacute">
          30 callgsubr
          117 -21 hstemhm
          400 154 -74 74 hintmask 10011010
          -71 callsubr
          180 636 rmoveto
          219 87 -7 53 -218 -94 rlineto
          hintmask 01101100
          11 -182 -36 callgsubr
        </CharString>
        <CharString name="Atilde">
          30 0 809 -788 -21 191 729 -111 -20 142 -21 hstemhm
          306 88 151 81 hintmask 01011110
          626 910 rmoveto
          0 -62 -48 -19 vhcurveto
          hintmask 01100110
          -30 -62 58 -47 hhcurveto
          -35 -67 -59 0 hvcurveto
          2 -44 rlineto
          0 67 51 21 vhcurveto
          hintmask 10001110
          31 65 -59 43 hhcurveto
          33 63 59 0 hvcurveto
          -602 -868 rmoveto
          62 hlineto
          hintmask 01100110
          -69 callgsubr
          hintmask 10001110
          -30 callsubr
        </CharString>
        <CharString name="B">
          53 0 54 274 54 -33 -21 313 54 hstemhm
          241 48 225 64 -17 63 hintmask 10111100
          241 695 rmoveto
          -34 callsubr
          234 hlineto
          171 92 95 145 66 -31 34 -57 20 hvcurveto
          hintmask 10111010
          72 28 62 68 106 vvcurveto
          97 -57 36 -106 vhcurveto
          -75 -367 rmoveto
          hintmask 11011100
          72 56 -17 -72 -113 -67 -72 -119 hvcurveto
          -173 hlineto
          63 274 rlineto
          232 313 rmoveto
          hintmask 11011010
          76 35 -20 -67 -95 -66 -77 -99 hvcurveto
          -166 hlineto
          59 259 rlineto
          endchar
        </CharString>
        <CharString name="C">
          -19 -10 56 603 56 hstem
          115 64 -94 callgsubr
          endchar
        </CharString>
        <CharString name="CR">
          -302 endchar
        </CharString>
        <CharString name="Cacute">
          -19 -10 56 603 56 hstem
          115 64 -94 callgsubr
          -56 778 -88 callsubr
          endchar
        </CharString>
        <CharString name="Ccaron">
          -19 -10 56 603 56 91 134 hstem
          115 64 253 65 -94 callgsubr
          190 918 -89 callgsubr
          endchar
        </CharString>
        <CharString name="Ccedilla">
          -19 -12 callsubr
          38 56 -41 -20 664 56 hstemhm
          115 64 87 39 20 52 hintmask 11011111
          17 callgsubr
          hintmask 11101111
          -39 callgsubr
          196 95 262 186 74 81 -16 0 vhcurveto
          14 50 rlineto
          0 -87 22 -78 -243 -106 -304 -212 -116 50 -67 101 -13 vhcurveto
          -19 -79 -99 callgsubr
          -51 callsubr
          10 38 rlineto
          3 hlineto
          79 89 22 0 hvcurveto
          endchar
        </CharString>
        <CharString name="Ccircumflex">
          -19 -10 56 603 56 hstem
          115 64 -94 callgsubr
          -127 785 -93 callsubr
          -30 hlineto
          endchar
        </CharString>
        <CharString name="Cdotaccent">
          -19 -10 56 132 -21 492 56 -48 -20 161 78 hstemhm
          115 64 282 50 hintmask 11011110
          17 callgsubr
          -39 callgsubr
          vhcurveto
          hintmask 11101110
          196 95 262 186 74 81 -16 0 vhcurveto
          14 50 rlineto
          0 -87 22 -78 -243 -106 -304 -212 -130 63 -69 127 79 89 22 0 vhcurveto
          -12 786 -26 callsubr
          endchar
        </CharString>
        <CharString name="D">
          82 0 55 585 55 hstem
          81 75 429 64 vstem
          319 hmoveto
          -41 callsubr
          -160 -695 -41 callgsubr
          134 585 -9 callgsubr
        </CharString>
        <CharString name="DLE">
          -525 endchar
        </CharString>
        <CharString name="Dcaron">
          82 0 55 585 55 101 134 hstem
          81 75 234 65 130 64 vstem
          81 hmoveto
          -20 callgsubr
          225 hlineto
          122 61 -62 -144 -208 -102 -281 -228 hvcurveto
          266 489 rmoveto
          105 -37 46 -94 vhcurveto
          -164 hlineto
          -134 -585 rlineto
          173 hlineto
          170 86 263 171 hvcurveto
          36 441 -89 callgsubr
          endchar
        </CharString>
        <CharString name="Dcroat">
          86 0 55 263 62 260 55 hstem
          84 75 429 64 vstem
          322 hmoveto
          -41 callsubr
          -73 -315 rlineto
          -71 hlineto
          -13 -62 rlineto
          70 hlineto
          -73 -318 -41 callgsubr
          60 263 rlineto
          149 hlineto
          14 62 rlineto
          -149 hlineto
          60 260 -9 callgsubr
        </CharString>
        <CharString name="Delta">
          35 0 54 552 54 hstem
          86 45 rmoveto
          -45 448 45 vlineto
          -168 615 rlineto
          -113 hlineto
          69 -54 rmoveto
          148 -552 rlineto
          -321 hlineto
          148 552 rlineto
          endchar
        </CharString>
        <CharString name="E">
          -18 0 -21 callsubr
          hstem
          81 74 vstem
          81 hmoveto
          382 hlineto
          -103 callsubr
        </CharString>
        <CharString name="Eacute">
          -18 0 55 272 55 408 -20 108 52 hstem
          375 8 vstem
          383 -66 callsubr
          -294 -835 rmoveto
          382 hlineto
          -103 callsubr
        </CharString>
        <CharString name="Ebreve">
          -18 0 -21 callsubr
          104 48 hstemhm
          81 74 185 53 164 53 hintmask 10111111
          340 922 rmoveto
          -93 callgsubr
          -312 -922 rmoveto
          382 hlineto
          hintmask 01111111
          -103 callsubr
        </CharString>
        <CharString name="Ecaron">
          -18 0 -21 callsubr
          105 134 hstemhm
          81 74 231 65 hintmask 10111110
          617 934 -89 callgsubr
          -380 -800 rmoveto
          382 hlineto
          hintmask 01111110
          -103 callsubr
        </CharString>
        <CharString name="Ecircumflex">
          -18 55 0 739 -20 20 86 48 0 hstem
          363 232 vstem
          363 794 -93 callsubr
          -30 hlineto
          -443 -928 rmoveto
          382 hlineto
          -103 callsubr
        </CharString>
        <CharString name="Edieresis">
          -18 0 55 765 -20 hstemhm
          343 18 vstemhm
          343 -59 callsubr
          hintmask 11100000
          -4 callsubr
          -466 -903 rmoveto
          382 hlineto
          -103 callsubr
        </CharString>
        <CharString name="Edotaccent">
          -18 0 -20 20 55 169 -21 124 55 258 55 8 -20 161 78 hstemhm
          81 74 275 50 hintmask 1011011110000000
          430 844 -26 callsubr
          -366 -922 rmoveto
          382 hlineto
          hintmask 0111011110000000
          13 55 rlineto
          -321 hlineto
          63 272 rlineto
          265 -73 callsubr
          -266 hlineto
          hintmask 1011101110000000
          60 258 rlineto
          321 -73 callsubr
          -383 hlineto
          endchar
        </CharString>
        <CharString name="Egrave">
          -18 0 55 272 55 405 88 -45 -20 hstemhm
          377 175 hintmask 11011000
          hintmask 11101000
          377 925 rmoveto
          -29 -50 rlineto
          hintmask 11011000
          178 -88 26 43 rlineto
          -471 -830 rmoveto
          382 hlineto
          -103 callsubr
        </CharString>
        <CharString name="Emacron">
          -18 0 55 272 55 446 -20 20 46 hstem
          313 10 vstem
          313 828 -28 callgsubr
          -242 -874 rmoveto
          382 hlineto
          -103 callsubr
        </CharString>
        <CharString name="Eng">
          100 81 hmoveto
          58 hlineto
          148 636 rlineto
          21 hlineto
          124 -636 rlineto
          53 hlineto
          -108 -25 -17 -18 -87 hhcurveto
          -10 -55 rlineto
          146 19 30 155 35 hvcurveto
          14 61 145 630 -54 callsubr
          -146 -634 rlineto
          -21 hlineto
          -121 634 rlineto
          -117 hlineto
          endchar
        </CharString>
        <CharString name="Eogonek">
          -18 -202 54 148 -21 callsubr
          hstemhm
          81 74 126 66 hintmask 11011110
          81 hmoveto
          298 hlineto
          -38 -32 -60 -62 -48 -72 callgsubr
          38 62 63 32 25 vhcurveto
          22 hlineto
          hintmask 10111110
          -103 callsubr
        </CharString>
        <CharString name="Eth">
          86 318 171 -109 315 hstemhm
          84 284 -281 565 hintmask 10100000
          hintmask 10010000
          322 hmoveto
          hintmask 01010000
          -41 callsubr
          -73 -315 rlineto
          hintmask 10010000
          -71 hlineto
          hintmask 10100000
          -13 -62 rlineto
          70 hlineto
          -73 -318 -41 callgsubr
          60 263 rlineto
          hintmask 01010000
          149 hlineto
          15 62 rlineto
          hintmask 10100000
          -150 hlineto
          60 260 -9 callgsubr
        </CharString>
        <CharString name="Euro">
          35 -10 54 172 50 115 50 187 53 hstem
          151 61 vstem
          495 60 rmoveto
          0 -79 -16 -75 -90 -39 44 94 11 0 11 1 12 vhcurveto
          283 hlineto
          11 50 rlineto
          -290 hlineto
          5 38 9 39 12 38 rrcurveto
          290 hlineto
          11 50 rlineto
          -283 hlineto
          105 44 73 82 102 hhcurveto
          70 77 -16 0 hvcurveto
          13 10 callgsubr
          -82 21 -75 -142 -93 -109 -131 -50 vhcurveto
          -46 hlineto
          -12 -50 rlineto
          41 hlineto
          -12 -38 -7 -39 -5 -38 rrcurveto
          -43 hlineto
          -12 -50 rlineto
          50 hlineto
          -1 -12 0 -13 -11 vvcurveto
          -124 60 -66 121 75 85 21 12 callgsubr
        </CharString>
        <CharString name="F">
          -42 0 0 21 -21 296 54 290 55 0 -20 hstem
          81 61 vstem
          81 hmoveto
          61 hlineto
          68 296 rlineto
          268 hlineto
          13 54 rlineto
          -268 hlineto
          67 290 rlineto
          312 -73 callsubr
          -374 hlineto
          endchar
        </CharString>
        <CharString name="G">
          -23 callsubr
          hstemhm
          1 133 -18 64 196 36 106 74 hintmask 1001110110000000
          403 301 -56 callgsubr
          vhcurveto
          hintmask 0111101110000000
          -51 callgsubr
          -88 callgsubr
          endchar
        </CharString>
        <CharString name="Gbreve">
          -23 callsubr
          77 57 hstemhm
          1 133 -18 64 196 36 -28 58 76 74 22 57 hintmask 1001111001110000
          384 922 rmoveto
          -2 -12 -1 -12 -12 vvcurveto
          -57 1 37 -47 71 hhcurveto
          93 66 60 80 22 hvcurveto
          -57 hlineto
          -48 -13 -38 -34 -55 hhcurveto
          -46 -22 26 34 7 0 8 2 7 hvcurveto
          -39 -621 -56 callgsubr
          vhcurveto
          hintmask 0111110110110000
          -51 callgsubr
          -88 callgsubr
          endchar
        </CharString>
        <CharString name="Gcircumflex">
          48 66 -21 256 629 -302 157 hstemhm
          1 133 242 36 4 45 1 166 hintmask 10111110
          349 785 31 callgsubr
          hintmask 11011110
          -86 -2 callsubr
          -42 hlineto
          hintmask 10111110
          hintmask 11011110
          -97 -629 -56 callgsubr
          -51 callgsubr
          vhcurveto
          hintmask 10111110
          -88 callgsubr
          endchar
        </CharString>
        <CharString name="Gcommaaccent">
          -23 callsubr
          hstemhm
          1 133 -18 64 84 56 56 36 106 74 hintmask 1001110111000000
          403 301 -56 callgsubr
          vhcurveto
          hintmask 0111101111000000
          -51 callgsubr
          -88 callgsubr
          -151 -427 -75 callgsubr
          endchar
        </CharString>
        <CharString name="Gdotaccent">
          48 181 120 -119 631 -185 263 -242 -21 263 -20 hstemhm
          1 133 242 36 -9 58 8 64 hintmask 0100111010000000
          476 813 rmoveto
          57 hlineto
          hintmask 1010011010000000
          18 78 rlineto
          -57 hlineto
          hintmask 0100111010000000
          hintmask 1001110110000000
          -91 -590 -56 callgsubr
          -51 callgsubr
          89 101 -22 0 vhcurveto
          16 10 callgsubr
          -99 29 -99 vhcurveto
          hintmask 0100111010000000
          -244 -109 -281 -242 -131 73 -61 131 100 93 28 0 hvcurveto
          79 336 rlineto
          -177 hlineto
          endchar
        </CharString>
        <CharString name="H">
          -69 callsubr
          endchar
        </CharString>
        <CharString name="Hbar">
          116 21 -21 320 59 130 56 130 -20 hstem
          249 59 346 58 vstem
          123 508 rmoveto
          83 hlineto
          -117 -508 rlineto
          59 hlineto
          73 320 rlineto
          346 hlineto
          -73 -320 rlineto
          58 hlineto
          117 508 rlineto
          81 hlineto
          15 57 rlineto
          -83 hlineto
          30 130 rlineto
          -58 hlineto
          -30 -130 rlineto
          -346 hlineto
          30 130 -54 callsubr
          -30 -130 rlineto
          -84 hlineto
          -12 -56 rlineto
          112 -130 rmoveto
          30 129 rlineto
          346 hlineto
          -30 -129 rlineto
          endchar
        </CharString>
        <CharString name="Hcircumflex">
          -69 callsubr
          -214 475 -93 callsubr
          -30 hlineto
          endchar
        </CharString>
        <CharString name="I">
          -302 21 -21 hstem
          81 61 99 62 vstem
          81 hmoveto
          -72 callsubr
        </CharString>
        <CharString name="Iacute">
          -302 811 -21 hstemhm
          233 219 -211 220 hintmask 10100000
          241 790 rmoveto
          220 88 rlineto
          hintmask 11000000
          -9 52 -42 callgsubr
          hintmask 10100000
          -152 -835 rmoveto
          -72 callsubr
        </CharString>
        <CharString name="Ibreve">
          -302 21 -21 798 48 hstem
          81 61 45 53 1 62 101 53 vstem
          187 921 rmoveto
          -93 callgsubr
          -159 -921 rmoveto
          -72 callsubr
        </CharString>
        <CharString name="Icircumflex">
          -302 815 -21 hstem
          146 66 105 61 vstem
          146 794 -93 callsubr
          -30 hlineto
          -226 -928 rmoveto
          -72 callsubr
        </CharString>
        <CharString name="Idieresis">
          -302 844 -21 hstemhm
          177 48 -30 50 hintmask 11000000
          177 823 rmoveto
          48 hlineto
          hintmask 10100000
          20 83 11 callgsubr
          hintmask 11000000
          20 callsubr
          -300 -906 rmoveto
          -72 callsubr
        </CharString>
        <CharString name="Idotaccent">
          -302 21 -21 224 -21 500 -20 161 78 hstemhm
          81 61 99 62 -29 50 hintmask 11111010
          274 844 -26 callsubr
          -210 -922 rmoveto
          61 hlineto
          hintmask 11111100
          161 -33 callgsubr
          endchar
        </CharString>
        <CharString name="Igrave">
          -302 851 -21 hstem
          151 29 149 26 vstem
          180 -68 callgsubr
          -274 -830 rmoveto
          -72 callsubr
        </CharString>
        <CharString name="Imacron">
          -302 859 -21 hstemhm
          154 284 -274 286 hintmask 11000000
          154 838 rmoveto
          284 hlineto
          hintmask 10100000
          12 46 -11 callgsubr
          hintmask 11000000
          -83 -884 rmoveto
          -72 callsubr
        </CharString>
        <CharString name="Iogonek">
          -302 6 callgsubr
          30 -21 hstemhm
          -24 66 40 60 99 62 hintmask 11011100
          121 -142 rmoveto
          -64 callsubr
          vhcurveto
          hintmask 10111100
          39 66 63 34 24 vhcurveto
          161 -33 callgsubr
          -159 -689 rlineto
          -36 -29 -70 -68 -51 -76 callsubr
          endchar
        </CharString>
        <CharString name="Itilde">
          -302 927 -21 hstem
          141 102 139 81 vstem
          463 906 -92 callsubr
          -385 -864 rmoveto
          -72 callsubr
        </CharString>
        <CharString name="J">
          -60 callsubr
          endchar
        </CharString>
        <CharString name="Jcircumflex">
          -60 callsubr
          -28 683 -93 callsubr
          -30 hlineto
          endchar
        </CharString>
        <CharString name="K">
          -9 21 -21 313 55 hstem
          241 62 129 65 90 70 vstem
          432 hmoveto
          -10 callsubr
          -14 callgsubr
        </CharString>
        <CharString name="Kcommaaccent">
          -9 21 -21 313 55 hstemhm
          233 56 -48 62 129 65 90 70 hintmask 11101100
          233 -73 -75 callgsubr
          284 276 rmoveto
          -10 callsubr
          rlineto
          hintmask 11011100
          -14 callgsubr
        </CharString>
        <CharString name="L">
          -89 0 55 661 -21 hstem
          241 62 vstem
          429 hmoveto
          -47 callsubr
        </CharString>
        <CharString name="Lacute">
          -89 790 88 -22 -21 hstemhm
          311 118 hintmask 10100000
          319 790 rmoveto
          220 88 -9 52 rlineto
          hintmask 01100000
          -42 callgsubr
          hintmask 10100000
          118 -835 rmoveto
          -47 callsubr
        </CharString>
        <CharString name="Lcaron">
          -75 0 55 433 -21 228 -20 41 -21 hstem
          241 62 187 55 vstem
          545 0 callgsubr
          55 hlineto
          -63 -467 rmoveto
          -47 callsubr
        </CharString>
        <CharString name="Lcommaaccent">
          -89 0 55 661 -21 hstemhm
          218 56 -33 62 hintmask 11100000
          218 -73 -75 callgsubr
          296 276 rmoveto
          7 callgsubr
          hintmask 11010000
          148 640 -58 callgsubr
          endchar
        </CharString>
        <CharString name="Lslash">
          -88 0 55 -55 62 654 -21 hstem
          243 62 vstem
          431 hmoveto
          7 callgsubr
          63 273 195 123 -19 45 -161 -100 70 299 -52 callgsubr
          -80 -344 -95 -60 20 -45 rlineto
          -1 vlineto
          60 38 -65 -283 rlineto
          endchar
        </CharString>
        <CharString name="M">
          253 21 -21 640 -20 20 55 hstemhm
          81 61 217 67 209 62 hintmask 11011100
          81 hmoveto
          61 hlineto
          148 640 rlineto
          11 hlineto
          58 -617 rlineto
          67 hlineto
          347 617 rlineto
          11 hlineto
          -149 -640 rlineto
          62 hlineto
          hintmask 10111100
          161 -24 callsubr
          -110 hlineto
          -344 -608 -54 608 rlineto
          -109 hlineto
          endchar
        </CharString>
        <CharString name="N">
          3 callsubr
          hstem
          81 59 505 60 vstem
          81 hmoveto
          -90 callgsubr
        </CharString>
        <CharString name="Nacute">
          100 0 -20 656 -20 174 0 hstem
          287 22 96 220 vstem
          405 -66 callsubr
          -316 -835 rmoveto
          -90 callgsubr
        </CharString>
        <CharString name="Ncaron">
          3 callsubr
          117 134 hstem
          81 59 292 65 148 60 vstem
          663 926 -89 callgsubr
          -426 -792 rmoveto
          -90 callgsubr
        </CharString>
        <CharString name="Ncommaaccent">
          3 callsubr
          hstem
          81 59 141 56 308 60 vstem
          281 -73 -75 callgsubr
          -115 276 rmoveto
          -90 callgsubr
        </CharString>
        <CharString name="Ntilde">
          100 0 0 61 -20 591 0 63 -20 hstemhm
          81 59 505 60 -55 58 hintmask 11111010
          664 908 -92 callsubr
          -586 -866 rmoveto
          59 hlineto
          147 636 rlineto
          22 hlineto
          124 -636 rlineto
          112 hlineto
          hintmask 11111100
          -20 callgsubr
          -60 hlineto
          -146 -634 rlineto
          -21 hlineto
          -121 634 rlineto
          -116 hlineto
          endchar
        </CharString>
        <CharString name="O">
          106 -10 55 605 55 hstem
          117 63 429 64 vstem
          334 45 -87 callsubr
          -79 callsubr
        </CharString>
        <CharString name="OE">
          340 819 -1 rmoveto
          15 62 rlineto
          -322 hlineto
          63 266 265 -2 13 60 rlineto
          -266 hlineto
          61 251 rlineto
          323 hlineto
          13 61 rlineto
          -380 hlineto
          3 -24 -96 7 -17 hhcurveto
          -184 -93 -127 -235 -56 hvcurveto
          -16 -70 -9 -59 1 -50 rrcurveto
          -114 2 54 -62 132 hhcurveto
          34 63 5 4 46 hvcurveto
          -124 53 rmoveto
          -106 -39 45 90 44 8 52 16 63 hvcurveto
          198 46 65 102 151 hhcurveto
          44 64 -4 -3 24 hvcurveto
          -138 -579 rlineto
          -4 -39 -75 -4 -21 hhcurveto
          endchar
        </CharString>
        <CharString name="Oacute">
          106 -10 55 605 55 hstem
          117 63 429 64 vstem
          334 45 -87 callsubr
          26 33 39 14 43 hhcurveto
          -105 callsubr
          105 800 -88 callsubr
          endchar
        </CharString>
        <CharString name="Obreve">
          106 -10 55 605 55 94 48 hstemhm
          117 63 205 53 164 53 -46 64 hintmask 11111100
          385 922 rmoveto
          -93 callgsubr
          -104 -877 -87 callsubr
          -60 callgsubr
          hintmask 11111010
          -105 callsubr
          endchar
        </CharString>
        <CharString name="Ocircumflex">
          106 -10 55 605 55 hstem
          117 63 429 64 vstem
          334 45 -87 callsubr
          26 33 39 14 43 hhcurveto
          -105 callsubr
          28 807 -93 callsubr
          -30 hlineto
          endchar
        </CharString>
        <CharString name="Odieresis">
          106 610 292 -82 82 hstemhm
          180 389 -130 170 hintmask 01010000
          383 820 3 callgsubr
          hintmask 01100000
          -17 callgsubr
          19 82 rlineto
          -55 hlineto
          -253 -857 rmoveto
          -112 -42 42 112 hvcurveto
          hintmask 10010000
          -82 callsubr
        </CharString>
        <CharString name="Ograve">
          106 45 880 -275 180 hstemhm
          334 123 49 60 hintmask 01110000
          hintmask 10110000
          417 -68 callgsubr
          hintmask 01110000
          -258 -785 rmoveto
          -112 -42 42 112 136 53 192 107 83 hvcurveto
          hintmask 10110000
          26 33 39 14 43 hhcurveto
          107 47 -48 -107 -143 -48 -183 -104 -82 hvcurveto
          hintmask 01110000
          -103 callgsubr
          endchar
        </CharString>
        <CharString name="Ohungarumlaut">
          106 610 197 -28 28 hstemhm
          180 201 228 139 hintmask 01110000
          566 779 -18 callgsubr
          -31 callgsubr
          -17 -762 rmoveto
          -112 -42 42 112 hvcurveto
          hintmask 10110000
          -82 callsubr
        </CharString>
        <CharString name="Omacron">
          106 -10 55 605 55 hstem
          117 63 429 64 vstem
          334 45 -87 callsubr
          26 33 39 14 43 hhcurveto
          -105 callsubr
          32 838 -28 callgsubr
          endchar
        </CharString>
        <CharString name="Omega">
          35 -9 54 570 55 hstem
          114 64 306 64 vstem
          95 45 rmoveto
          -54 193 46 vlineto
          0 -110 213 107 vvcurveto
          172 18 86 135 133 20 -86 -172 -107 -111 -213 0 vhcurveto
          -46 194 54 -132 vlineto
          0 113 196 133 vvcurveto
          195 -44 101 -173 -173 -44 -101 -195 -133 112 -196 12 callgsubr
        </CharString>
        <CharString name="Oslash">
          106 -113 22 81 55 307 424 -126 55 hstemhm
          117 63 141 354 -263 52 145 64 hintmask 11101011
          109 -49 callsubr
          rlineto
          hintmask 11011100
          -77 callgsubr
          hintmask 11101011
          -186 -272 rlineto
          -53 callgsubr
          endchar
        </CharString>
        <CharString name="Oslashacute">
          108 45 790 -52 11 hstemhm
          73 37 231 307 hintmask 01110000
          110 -49 callsubr
          -77 callgsubr
          -186 -272 rlineto
          hintmask 10110000
          -53 callgsubr
          hintmask 01110000
          93 738 rmoveto
          220 89 -10 58 rlineto
          hintmask 10110000
          -42 callgsubr
          endchar
        </CharString>
        <CharString name="Otilde">
          106 -10 55 604 55 -54 55 hstemhm
          117 62 -62 63 426 62 -59 64 hintmask 11001100
          678 908 -92 callsubr
          -347 -821 -87 callsubr
          hintmask 10110100
          -60 callgsubr
          hintmask 11010010
          -86 callgsubr
          -61 callgsubr
          -6 -55 rmoveto
          -31 callsubr
          hintmask 10110100
          143 -74 64 -140 -71 -61 -27 -46 -51 vhcurveto
          -104 -96 -55 -176 -163 vvcurveto
          -150 64 -57 147 vhcurveto
          endchar
        </CharString>
        <CharString name="P">
          22 21 -21 241 55 343 56 hstem
          81 61 420 64 vstem
          366 241 rmoveto
          171 89 130 167 104 -47 53 -114 hvcurveto
          -224 4 callgsubr
          56 241 rlineto
          13 55 rmoveto
          79 343 rlineto
          167 hlineto
          76 29 -34 -67 -129 -58 -113 -128 hvcurveto
          endchar
        </CharString>
        <CharString name="Q">
          106 -143 793 -636 31 hstemhm
          334 123 48 1 hintmask 10110000
          328 -10 rmoveto
          26 25 4 6 23 hvcurveto
          45 -143 58 19 -47 145 17 9 16 10 15 13 rlinecurve
          113 93 54 182 170 vvcurveto
          143 -74 64 -140 -71 -61 -27 -46 -51 vhcurveto
          -104 -96 -55 -176 -163 vvcurveto
          -150 64 -57 147 vhcurveto
          hintmask 01110000
          6 55 -58 callsubr
          endchar
        </CharString>
        <CharString name="R">
          -21 callgsubr
          hstem
          81 61 245 29 callgsubr
          vstem
          464 hmoveto
          -77 callsubr
        </CharString>
        <CharString name="Racute">
          -21 callgsubr
          hstem
          81 61 245 29 callgsubr
          vstem
          387 270 -74 callsubr
          -202 257 -88 callsubr
          endchar
        </CharString>
        <CharString name="Rcaron">
          -21 callgsubr
          97 134 hstemhm
          81 61 236 65 -56 29 callgsubr
          hintmask 1111110110000000
          609 926 -89 callgsubr
          hintmask 1111101110000000
          -66 -522 -74 callsubr
          endchar
        </CharString>
        <CharString name="Rcommaaccent">
          -21 callgsubr
          hstem
          81 61 115 56 74 29 callgsubr
          vstem
          172 -34 callgsubr
          207 73 rmoveto
          -77 callsubr
        </CharString>
        <CharString name="S">
          -97 callgsubr
          endchar
        </CharString>
        <CharString name="Sacute">
          -97 callgsubr
          -226 158 -88 callsubr
          endchar
        </CharString>
        <CharString name="Scaron">
          -25 -10 55 -53 61 595 61 -59 55 91 134 hstemhm
          165 61 -61 63 157 65 -11 63 -61 61 hintmask 0110110100000000
          616 930 -89 callgsubr
          131 -117 rmoveto
          hintmask 0101101010000000
          -19 callgsubr
          hintmask 1010101001000000
          -113 -66 -68 -113 -75 -117 18 0 vhcurveto
          -11 -50 rlineto
          0 107 -23 92 150 96 91 149 91 -43 29 -99 33 vhcurveto
          -94 31 -38 15 61 vvcurveto
          hintmask 0101110001000000
          107 70 53 108 70 104 -18 12 callgsubr
        </CharString>
        <CharString name="Scedilla">
          -25 -12 callsubr
          38 55 -53 61 595 61 -59 55 hstemhm
          165 61 -61 63 4 37 19 52 99 63 -61 61 hintmask 1101101011010000
          591 679 rmoveto
          hintmask 1101010111100000
          -19 callgsubr
          hintmask 1110100111010000
          -113 -66 -68 -113 -75 -117 18 0 vhcurveto
          -11 -50 rlineto
          0 87 -19 84 -3 vhcurveto
          -18 -77 -99 callgsubr
          -51 callsubr
          10 38 rlineto
          145 4 92 90 146 vvcurveto
          91 -43 29 -99 33 vhcurveto
          -94 31 -38 15 61 vvcurveto
          hintmask 1101011011010000
          107 70 53 108 70 104 -18 12 callgsubr
        </CharString>
        <CharString name="Scircumflex">
          -97 callgsubr
          -292 165 -93 callsubr
          -30 hlineto
          endchar
        </CharString>
        <CharString name="Scommaaccent">
          -25 -10 55 605 55 hstemhm
          165 63 -9 56 164 63 hintmask 11011000
          219 -73 -75 callgsubr
          457 955 rmoveto
          18 callsubr
          vhcurveto
          hintmask 11101000
          -62 callsubr
          hvcurveto
          89 -29 27 -16 -62 vvcurveto
          -113 -66 -68 -113 -75 -117 18 0 vhcurveto
          -11 -50 rlineto
          0 107 -23 92 150 96 91 149 91 -43 29 -99 33 vhcurveto
          -94 31 -38 15 61 vvcurveto
          107 70 53 108 70 104 -18 12 callgsubr
        </CharString>
        <CharString name="T">
          -53 21 -21 640 55 hstem
          204 61 vstem
          157 640 rmoveto
          194 hlineto
          -57 callgsubr
        </CharString>
        <CharString name="Tbar">
          -48 0 307 78 -21 hstem
          131 382 vstem
          159 640 rmoveto
          194 hlineto
          -64 -276 rlineto
          -158 hlineto
          -13 -57 rlineto
          158 hlineto
          -70 -307 -30 callgsubr
          71 307 rlineto
          160 hlineto
          15 57 rlineto
          -162 hlineto
          64 276 rlineto
          194 -73 callsubr
          -450 hlineto
          endchar
        </CharString>
        <CharString name="Tcaron">
          -53 21 -21 640 55 97 134 hstem
          204 61 84 65 vstem
          580 926 -89 callgsubr
          -267 -152 rmoveto
          194 hlineto
          -57 callgsubr
        </CharString>
        <CharString name="Tcedilla">
          -53 -12 callsubr
          53 -20 36 -21 640 55 hstemhm
          204 61 -48 36 21 52 hintmask 11101101
          326 -124 rmoveto
          -51 callsubr
          hintmask 11011011
          12 48 rlineto
          hintmask 11011101
          12 hlineto
          148 640 rlineto
          194 -73 callsubr
          -450 hlineto
          -13 -55 rlineto
          194 hlineto
          -147 -640 rlineto
          hintmask 11011011
          13 hlineto
          -21 -86 -99 callgsubr
          endchar
        </CharString>
        <CharString name="Tcommaaccent">
          -53 21 -21 640 55 hstemhm
          194 56 -46 61 hintmask 11100000
          194 -73 -75 callgsubr
          48 916 rmoveto
          194 hlineto
          hintmask 11010000
          -57 callgsubr
        </CharString>
        <CharString name="Thorn">
          26 21 -21 125 58 342 57 115 -20 hstem
          243 60 234 60 vstem
          356 183 rmoveto
          -174 hlineto
          81 342 169 -1 rlineto
          113 13 -77 -85 -21 hvcurveto
          -100 -26 -53 -79 -102 hhcurveto
          -13 -58 rmoveto
          139 85 99 138 30 hvcurveto
          120 26 -32 100 -145 hhcurveto
          -170 hlineto
          27 115 8 callgsubr
          -164 -697 rlineto
          60 hlineto
          29 125 rlineto
          endchar
        </CharString>
        <CharString name="U">
          -92 callgsubr
          endchar
        </CharString>
        <CharString name="Uacute">
          -92 callgsubr
          205 577 -88 callsubr
          endchar
        </CharString>
        <CharString name="Ubreve">
          68 -10 56 649 -20 124 48 hstem
          361 53 164 53 vstem
          361 922 rmoveto
          -93 callgsubr
          -117 -227 -107 callsubr
          endchar
        </CharString>
        <CharString name="Ucircumflex">
          -92 callgsubr
          143 584 -93 callsubr
          -30 hlineto
          endchar
        </CharString>
        <CharString name="Udieresis">
          68 695 125 0 -20 hstem
          354 820 -11 callsubr
          -261 -207 -107 callsubr
          endchar
        </CharString>
        <CharString name="Ugrave">
          68 205 490 135 -20 hstem
          393 -68 callgsubr
          -271 -135 -107 callsubr
          endchar
        </CharString>
        <CharString name="Uhungarumlaut">
          68 695 65 -1 -20 hstemhm
          hintmask 01000000
          532 759 -18 callgsubr
          hintmask 10000000
          -31 callgsubr
          -20 -92 -107 callsubr
          endchar
        </CharString>
        <CharString name="Umacron">
          -92 callgsubr
          152 615 -28 callgsubr
          endchar
        </CharString>
        <CharString name="Uogonek">
          69 -202 54 138 56 -35 -20 704 -20 hstemhm
          216 66 hintmask 10111000
          297 695 rmoveto
          -61 hlineto
          -110 -477 rlineto
          -7 -26 -4 -36 -24 vvcurveto
          hintmask 11011000
          -96 74 -44 114 -2 vhcurveto
          -38 -34 -49 -55 -43 -72 callgsubr
          35 54 58 33 28 vhcurveto
          111 17 56 70 29 123 113 490 rcurveline
          -62 hlineto
          -113 -489 rlineto
          -106 -24 -49 -54 -115 hhcurveto
          -85 -54 26 67 21 4 29 6 24 hvcurveto
          endchar
        </CharString>
        <CharString name="Uring">
          68 842 -20 20 0 hstem
          590 842 -67 callsubr
          -139 -147 -107 callsubr
          endchar
        </CharString>
        <CharString name="Utilde">
          68 695 121 93 -20 hstem
          646 909 -92 callsubr
          -352 -172 -107 callsubr
          endchar
        </CharString>
        <CharString name="V">
          17 0 0 21 -21 55 -20 660 -20 hstem
          184 62 9 48 308 62 vstem
          611 695 rmoveto
          -308 -640 rlineto
          -48 hlineto
          -9 640 -52 callgsubr
          14 -2 callgsubr
          140 hlineto
          335 -24 callsubr
          endchar
        </CharString>
        <CharString name="W">
          295 21 -21 56 -20 659 -20 hstem
          190 61 281 66 285 62 vstem
          190 695 -67 callgsubr
          299 695 rlineto
          -87 callgsubr
        </CharString>
        <CharString name="Wacute">
          295 21 -21 56 -20 659 -20 22 -20 hstemhm
          190 61 281 66 285 62 hintmask 11011110
          505 -66 callsubr
          hintmask 11101110
          -307 -140 -67 callgsubr
          299 695 rlineto
          -87 callgsubr
        </CharString>
        <CharString name="Wcircumflex">
          295 0 -20 834 -21 hstemhm
          190 409 -161 445 -354 16 hintmask 11010000
          438 793 -93 callsubr
          hintmask 11100000
          -30 hlineto
          hintmask 11010000
          hintmask 11100000
          -409 -232 rmoveto
          -26 -2 callgsubr
          120 hlineto
          hintmask 11001000
          261 589 -16 -589 rlineto
          117 hlineto
          299 -24 callsubr
          hintmask 11010000
          -87 callgsubr
        </CharString>
        <CharString name="Wdieresis">
          295 695 -20 166 -21 hstemhm
          284 261 -73 473 -269 49 hintmask 11010000
          472 -59 callsubr
          hintmask 11101000
          -4 callsubr
          -486 -208 -67 callgsubr
          hintmask 11010000
          299 695 rlineto
          -87 callgsubr
        </CharString>
        <CharString name="Wgrave">
          295 0 -20 828 -21 43 -20 hstem
          284 261 53 83 202 62 vstem
          506 -68 callgsubr
          -491 -135 -67 callgsubr
          299 695 rlineto
          -87 callgsubr
        </CharString>
        <CharString name="X">
          -13 15 69 101 63 179 63 vstem
          248 695 rmoveto
          -63 hlineto
          115 -347 -285 -348 rlineto
          69 hlineto
          242 298 101 -298 rlineto
          63 hlineto
          -117 343 283 352 rlineto
          -69 hlineto
          -239 -301 rlineto
          endchar
        </CharString>
        <CharString name="Y">
          -35 21 -21 hstemhm
          173 62 -24 59 299 66 hintmask 11010000
          635 695 -81 callgsubr
          rlineto
          hintmask 10110000
          -63 callsubr
        </CharString>
        <CharString name="Yacute">
          -35 21 -21 249 49 399 -20 hstemhm
          173 62 -24 59 12 57 230 66 hintmask 11110110
          344 -66 callsubr
          299 -140 -81 callgsubr
          rlineto
          hintmask 11101110
          -63 callsubr
        </CharString>
        <CharString name="Ycircumflex">
          -35 948 -21 hstemhm
          278 66 95 196 -125 56 hintmask 11010000
          278 793 -93 callsubr
          hintmask 11100000
          -30 hlineto
          196 -232 -81 callgsubr
          -63 callsubr
        </CharString>
        <CharString name="Ydieresis">
          -35 923 -21 hstemhm
          304 48 -30 166 20 49 hintmask 11010000
          304 819 rmoveto
          48 hlineto
          20 83 rlineto
          hintmask 10110000
          -50 hlineto
          hintmask 11010000
          hintmask 10110000
          20 callsubr
          127 -207 -81 callgsubr
          -63 callsubr
        </CharString>
        <CharString name="Ygrave">
          -35 379 -21 hstemhm
          235 89 18 293 -144 26 hintmask 11010000
          hintmask 11100000
          342 -68 callgsubr
          hintmask 11010000
          118 -135 -81 callgsubr
          -63 callsubr
        </CharString>
        <CharString name="Z">
          -29 0 55 585 55 hstem
          188 640 -78 callsubr
        </CharString>
        <CharString name="Zacute">
          -29 55 823 -266 28 hstemhm
          hintmask 10000000
          340 -66 callsubr
          hintmask 01000000
          -144 -195 rmoveto
          349 hlineto
          -7 -28 -471 -522 -21 -90 rlineto
          416 hlineto
          hintmask 10000000
          13 55 rlineto
          -350 hlineto
          6 24 472 523 22 93 rlineto
          -416 hlineto
          endchar
        </CharString>
        <CharString name="Zcaron">
          -29 0 55 6 17 540 18 4 55 96 134 hstem
          369 65 vstem
          600 925 -89 callgsubr
          -256 -151 -78 callsubr
        </CharString>
        <CharString name="Zdotaccent">
          -29 0 55 169 -21 437 55 8 -20 161 78 hstemhm
          400 50 hintmask 11011100
          400 844 -26 callsubr
          hintmask 11101100
          -229 -282 -78 callsubr
        </CharString>
        <CharString name="a">
          -32 -50 callgsubr
          hstem
          91 62 vstem
          216 -10 -107 callgsubr
          endchar
        </CharString>
        <CharString name="aacute">
          -32 -50 callgsubr
          105 -21 hstem
          91 62 vstem
          216 -10 -107 callgsubr
          -2 144 -91 callgsubr
        </CharString>
        <CharString name="abreve">
          -32 -50 callgsubr
          84 49 hstem
          91 62 154 51 172 52 vstem
          216 -10 -107 callgsubr
          -36 270 -38 callgsubr
          -90 callsubr
        </CharString>
        <CharString name="acircumflex">
          -32 -1 736 -249 104 hstemhm
          216 126 hintmask 01100000
          248 590 rmoveto
          67 hlineto
          -25 callsubr
          62 hlineto
          hintmask 10100000
          -87 -2 callsubr
          -42 hlineto
          hintmask 01100000
          -183 -745 rmoveto
          89 88 123 0 hvcurveto
          hintmask 10100000
          -4 -21 -15 -93 0 vvcurveto
          58 2 rlineto
          -61 callsubr
          hintmask 01100000
          76 325 rlineto
          0 -133 24 -61 -165 -86 -218 -161 -88 39 -53 86 vhcurveto
          127 467 rmoveto
          52 72 -15 0 hvcurveto
          -61 -258 rlineto
          0 -104 -141 -69 -60 -20 32 56 133 65 193 125 vhcurveto
          endchar
        </CharString>
        <CharString name="acute">
          17 615 -21 hstem
          285 601 -91 callgsubr
        </CharString>
        <CharString name="acute.cap.001">
          -26 331 -66 callsubr
          endchar
        </CharString>
        <CharString name="adieresis">
          -32 113 594 -546 464 hstemhm
          475 61 hintmask 01100000
          272 625 rmoveto
          55 hlineto
          hintmask 10100000
          -3 callsubr
          hintmask 01100000
          -17 callgsubr
          hintmask 10100000
          19 1 callgsubr
          hintmask 01100000
          -259 -717 rmoveto
          hintmask 10100000
          89 88 123 0 hvcurveto
          -4 -21 -15 -93 0 vvcurveto
          58 2 rlineto
          hintmask 01100000
          -61 callsubr
          76 325 rlineto
          0 -133 24 -61 -165 -86 -218 -161 -88 39 -53 86 vhcurveto
          127 467 rmoveto
          52 72 -15 0 hvcurveto
          -61 -258 rlineto
          0 -104 -141 -69 -60 -20 32 56 133 65 193 125 vhcurveto
          endchar
        </CharString>
        <CharString name="ae">
          232 -97 callsubr
          endchar
        </CharString>
        <CharString name="aeacute">
          232 615 -21 hstem
          -97 callsubr
          -278 327 -91 callgsubr
        </CharString>
        <CharString name="agrave">
          -32 -50 callgsubr
          hstem
          91 62 vstem
          216 -10 -107 callgsubr
          -8 277 -65 callsubr
          endchar
        </CharString>
        <CharString name="amacron">
          -32 -50 callgsubr
          123 56 hstem
          91 62 vstem
          216 -10 -107 callgsubr
          -56 185 -62 callgsubr
        </CharString>
        <CharString name="ampersand">
          108 -10 54 324 42 -21 -21 285 52 0 -20 hstemhm
          -259 154 183 63 119 62 196 62 -20 59 hintmask 1100111101000000
          446 705 rmoveto
          -116 -70 -75 -123 -39 9 -23 17 -35 hvcurveto
          -147 -55 -61 -72 -136 vvcurveto
          -105 55 -52 129 96 74 42 81 64 vhcurveto
          93 -119 42 38 -98 125 30 44 36 70 20 67 rlinecurve
          -59 hlineto
          -16 -51 -25 -53 -21 -34 -119 165 rcurveline
          hintmask 1011011110000000
          131 49 70 68 107 vvcurveto
          82 -52 34 -82 vhcurveto
          -177 -661 rmoveto
          -79 -49 30 77 105 42 65 128 47 hvcurveto
          152 -213 rlineto
          -71 -49 -70 -40 -75 hhcurveto
          53 462 rmoveto
          83 40 64 81 47 28 -20 -47 -82 -46 -53 -118 -47 vhcurveto
          -21 31 -11 33 38 vvcurveto
          endchar
        </CharString>
        <CharString name="aogonek">
          -32 -202 54 138 53 -34 -20 468 53 hstemhm
          91 62 113 66 hintmask 11011100
          411 -142 rmoveto
          -64 callsubr
          38 64 65 31 24 vhcurveto
          5 hlineto
          -61 callsubr
          76 325 rlineto
          0 -133 24 -61 -165 -86 -218 -161 -88 39 -53 86 89 88 123 0 vhcurveto
          hintmask 10111100
          -4 -18 -10 -64 -4 -22 rrcurveto
          -35 -27 -74 -71 -53 -76 callsubr
          -62 650 rmoveto
          52 72 -15 0 hvcurveto
          -61 -258 rlineto
          hintmask 11011100
          0 -104 -141 -69 -60 -20 32 56 133 65 193 125 vhcurveto
          endchar
        </CharString>
        <CharString name="approxequal">
          35 95 56 10 56 54 56 10 56 hstem
          539 375 -44 callsubr
          -11 -126 -44 callsubr
          endchar
        </CharString>
        <CharString name="aring">
          -32 -50 callgsubr
          59 41 106 49 hstem
          91 62 184 39 101 40 vstem
          216 -10 -107 callgsubr
          -6 207 -95 callsubr
          endchar
        </CharString>
        <CharString name="aringacute">
          -32 -50 callgsubr
          39 41 106 49 46 -21 hstem
          91 62 153 39 101 40 vstem
          340 771 rmoveto
          219 87 -8 58 -218 -94 rlineto
          -117 -832 -107 callgsubr
          -37 187 -95 callsubr
          endchar
        </CharString>
        <CharString name="asciicircum">
          35 496 320 rmoveto
          65 hlineto
          -191 340 rlineto
          -55 hlineto
          -184 -340 rlineto
          65 hlineto
          147 280 rlineto
          endchar
        </CharString>
        <CharString name="asciitilde">
          35 201 56 10 56 hstem
          543 305 rmoveto
          0 -65 -48 -37 vhcurveto
          -45 -97 66 -56 hhcurveto
          -53 -62 -54 0 hvcurveto
          11 -51 rlineto
          0 65 49 39 vhcurveto
          42 100 -66 56 hhcurveto
          53 60 54 0 hvcurveto
          endchar
        </CharString>
        <CharString name="asterisk">
          -114 514 44 142 -20 hstem
          488 514 rmoveto
          44 -132 vlineto
          41 128 -43 14 -41 -127 -108 79 -27 -36 108 -79 -109 -79 26 -35 108 79 42 -128 42 13 -41 127 rlineto
          endchar
        </CharString>
        <CharString name="at">
          402 -200 55 135 56 619 54 hstem
          109 60 152 60 517 55 vstem
          639 719 -98 callsubr
        </CharString>
        <CharString name="at.cap">
          386 -105 55 135 56 619 54 hstem
          122 60 152 60 517 55 vstem
          652 814 -98 callsubr
        </CharString>
        <CharString name="atilde">
          -32 -50 callgsubr
          110 -15 callgsubr
          91 62 hintmask 11101000
          216 -10 -107 callgsubr
          224 257 -56 callsubr
          hintmask 11011000
          -96 callgsubr
          hintmask 11101000
          -83 callsubr
          endchar
        </CharString>
        <CharString name="b">
          -33 -10 53 413 54 0 -20 232 -20 20 0 hstem
          235 60 159 62 vstem
          386 510 rmoveto
          -81 -79 -83 0 hvcurveto
          69 295 8 callgsubr
          -164 -708 rlineto
          0 116 -24 76 183 70 246 123 87 -24 64 -106 vhcurveto
          -124 -467 rmoveto
          -46 -75 14 0 hvcurveto
          70 305 rlineto
          0 90 94 68 75 10 -43 -57 -74 -46 -239 -146 vhcurveto
          endchar
        </CharString>
        <CharString name="backslash">
          -114 21 -21 691 -20 hstem
          383 10 rmoveto
          -131 691 -63 -10 131 -691 rlineto
          endchar
        </CharString>
        <CharString name="bar">
          -219 -204 -21 947 -20 hstem
          180 60 vstem
          180 -225 rmoveto
          60 947 -60 hlineto
          endchar
        </CharString>
        <CharString name="braceleft">
          -206 -126 56 766 55 hstemhm
          252 27 -27 199 hintmask 11100000
          221 223 -85 callsubr
        </CharString>
        <CharString name="braceleft.cap">
          -206 -96 56 766 55 hstemhm
          259 27 -27 199 hintmask 11100000
          228 253 -85 callsubr
        </CharString>
        <CharString name="braceright">
          -207 -128 55 766 56 hstemhm
          11 199 -27 27 hintmask 11010000
          241 400 -84 callgsubr
        </CharString>
        <CharString name="braceright.cap">
          -205 -98 55 766 56 hstemhm
          19 199 -27 27 hintmask 11010000
          249 430 -84 callgsubr
        </CharString>
        <CharString name="bracketleft">
          -242 -122 27 callsubr
          238 48 vstem
          238 747 -32 callsubr
        </CharString>
        <CharString name="bracketleft.cap">
          -241 -92 27 callsubr
          245 48 vstem
          245 777 -32 callsubr
        </CharString>
        <CharString name="bracketright">
          -242 -121 27 callsubr
          142 48 vstem
          190 -121 -32 callgsubr
        </CharString>
        <CharString name="bracketright.cap">
          -243 -91 27 callsubr
          148 48 vstem
          196 -91 -32 callgsubr
        </CharString>
        <CharString name="breve">
          -92 594 49 hstem
          244 51 172 52 vstem
          244 727 -38 callgsubr
          -90 callsubr
        </CharString>
        <CharString name="breve.cap">
          -92 799 48 hstem
          292 53 164 53 vstem
          292 922 rmoveto
          -93 callgsubr
          endchar
        </CharString>
        <CharString name="brokenbar">
          -212 -204 -21 947 -20 hstem
          184 60 vstem
          184 722 rmoveto
          -375 60 375 vlineto
          -60 -570 rmoveto
          -377 60 377 vlineto
          endchar
        </CharString>
        <CharString name="bullet">
          -33 128 -21 288 -20 hstem
          179 250 vstem
          179 107 rmoveto
          250 288 -250 hlineto
          endchar
        </CharString>
        <CharString name="c">
          -121 -50 callgsubr
          hstem
          95 61 -96 callsubr
          endchar
        </CharString>
        <CharString name="cacute">
          -121 -50 callgsubr
          105 -21 hstem
          95 61 -96 callsubr
          -58 91 -91 callgsubr
        </CharString>
        <CharString name="caron">
          266 611 -37 callsubr
          hstem
          424 25 callgsubr
          vstem
          541 590 -15 callsubr
        </CharString>
        <CharString name="caron.cap">
          -92 796 134 hstem
          340 65 vstem
          571 930 -89 callgsubr
          endchar
        </CharString>
        <CharString name="ccaron">
          -121 -10 53 -53 57 405 57 -52 53 101 -37 callsubr
          hstemhm
          95 61 -56 60 110 25 callgsubr
          hintmask 0110110111000000
          387 590 -78 callgsubr
          hintmask 0101110111000000
          3 -80 rmoveto
          hintmask 1010111011000000
          -180 -83 -182 -191 -94 49 -53 104 60 68 21 0 hvcurveto
          3 10 callgsubr
          -74 -16 -39 -80 -30 37 67 vhcurveto
          hintmask 0101110111000000
          -19 callsubr
        </CharString>
        <CharString name="ccedilla">
          -120 -12 callsubr
          38 53 -53 57 -42 -20 467 57 -52 53 hstemhm
          95 61 -55 60 48 39 20 52 hintmask 1100101011100000
          358 510 rmoveto
          hintmask 1100110101100000
          -180 -83 -182 -191 -82 36 -50 78 -12 hvcurveto
          -19 -79 -99 callgsubr
          -51 callsubr
          hintmask 1101010011100000
          10 38 rlineto
          3 hlineto
          60 68 21 0 hvcurveto
          3 48 rlineto
          hintmask 1110010011100000
          0 -74 -16 -39 vhcurveto
          hintmask 1100110101100000
          -80 -30 37 67 hvcurveto
          hintmask 1100101011100000
          -19 callsubr
        </CharString>
        <CharString name="ccircumflex">
          -121 -50 callgsubr
          101 -37 callsubr
          hstem
          95 61 78 17 callsubr
          -96 callsubr
          -124 80 rmoveto
          62 hlineto
          -89 callsubr
        </CharString>
        <CharString name="cdotaccent">
          -121 -50 callgsubr
          hstem
          95 61 -96 callsubr
          -17 100 -36 callsubr
        </CharString>
        <CharString name="cedilla">
          266 -12 callsubr
          53 -20 hstem
          391 37 19 52 vstem
          499 -124 rmoveto
          -51 callsubr
          14 53 rlineto
          -37 hlineto
          -22 -91 -99 callgsubr
          endchar
        </CharString>
        <CharString name="cent">
          35 258 52 vstem
          258 -82 rmoveto
          52 hlineto
          29 123 rlineto
          40 63 8 0 hvcurveto
          12 53 rlineto
          0 -85 -7 -43 -118 1 67 86 21 vhcurveto
          97 24 54 60 91 hhcurveto
          36 84 -8 0 hvcurveto
          16 54 rlineto
          0 -56 8 -42 2 vhcurveto
          30 124 rlineto
          -52 hlineto
          -29 -124 -103 -3 -77 -71 -36 -139 rlinecurve
          -26 -104 8 -104 135 -2 rrcurveto
          endchar
        </CharString>
        <CharString name="circumflex">
          266 611 -37 callsubr
          hstem
          392 17 callsubr
          vstem
          392 590 rmoveto
          62 hlineto
          -89 callsubr
        </CharString>
        <CharString name="circumflex.cap.001">
          -92 252 797 -93 callsubr
          -30 hlineto
          endchar
        </CharString>
        <CharString name="colon">
          -351 79 61 17 61 vstem
          134 338 rmoveto
          -38 callsubr
          -101 -438 rmoveto
          -38 callsubr
          endchar
        </CharString>
        <CharString name="comma">
          -340 -108 -21 229 -20 hstem
          47 -129 rmoveto
          111 229 rlineto
          -66 hlineto
          -94 -229 rlineto
          endchar
        </CharString>
        <CharString name="commaaccent">
          -364 48 56 vstem
          -37 -34 callgsubr
          endchar
        </CharString>
        <CharString name="copyright">
          120 164 39 75 48 216 48 75 39 hstemhm
          162 40 109 49 -49 187 -73 76 143 39 hintmask 1111101010000000
          -71 callgsubr
          -127 -93 104 127 vhcurveto
          296 -101 rmoveto
          0 -42 -7 -29 vhcurveto
          hintmask 1111110110000000
          -54 -13 38 70 70 8 38 59 hvcurveto
          hintmask 1111101010000000
          32 39 -7 0 hvcurveto
          hintmask 1111110110000000
          3 46 rlineto
          0 -35 9 -41 -90 -24 -57 -99 -102 25 -54 88 38 39 10 12 callgsubr
        </CharString>
        <CharString name="currency">
          35 510 37 rmoveto
          42 43 -71 70 43 60 0 82 -43 61 rlinecurve
          71 71 -42 43 -71 -71 -61 43 -82 0 -61 -43 rlinecurve
          -70 71 -42 -43 70 -70 -44 -61 0 -83 44 -61 rlinecurve
          -70 -69 42 -43 70 71 61 -44 82 0 61 44 rlinecurve
          -186 59 rmoveto
          -46 47 0 76 46 46 46 46 77 0 46 -46 45 -46 0 -76 -45 -47 -46 -45 -77 0 -46 45 rrcurveto
          endchar
        </CharString>
        <CharString name="d">
          -32 -10 53 414 52 213 -20 hstem
          91 62 378 60 vstem
          591 722 rmoveto
          -60 hlineto
          -54 -230 rlineto
          -68 callsubr
        </CharString>
        <CharString name="dagger">
          -83 -55 -21 511 63 192 -20 hstem
          291 57 vstem
          129 435 rmoveto
          162 hlineto
          -119 -511 rlineto
          55 hlineto
          121 513 165 -2 14 63 rlineto
          -163 hlineto
          44 21 callsubr
          rlineto
          endchar
        </CharString>
        <CharString name="daggerdbl">
          -42 -55 -21 194 59 260 61 192 -20 hstem
          194 56 vstem
          194 -76 11 callsubr
          45 194 164 -2 15 61 rlineto
          -164 hlineto
          61 260 164 -2 15 63 rlineto
          -164 hlineto
          45 21 callsubr
          -14 -63 rlineto
          162 hlineto
          -61 -259 -164 1 -14 -61 rlineto
          164 hlineto
          endchar
        </CharString>
        <CharString name="dcaron">
          5 -10 53 414 52 -21 -21 228 -20 47 -20 hstemhm
          91 62 378 60 55 54 hintmask 10111111
          700 695 rmoveto
          -54 hlineto
          -54 -228 rlineto
          55 hlineto
          -56 255 rmoveto
          -60 hlineto
          -54 -230 rlineto
          hintmask 11011111
          -68 callsubr
        </CharString>
        <CharString name="dcroat">
          -32 0 656 -558 624 -123 -20 hstemhm
          352 266 -253 226 hintmask 01001000
          591 722 rmoveto
          -60 hlineto
          hintmask 10001000
          -16 -66 rlineto
          -151 hlineto
          hintmask 00110000
          -12 -57 rlineto
          150 hlineto
          -25 -107 rlineto
          0 -74 17 -63 -158 -91 -210 -170 -93 42 -46 80 vhcurveto
          hintmask 01001000
          93 81 108 0 hvcurveto
          hintmask 10001000
          -22 -98 rlineto
          58 hlineto
          hintmask 00110000
          139 599 -9 callsubr
          hintmask 10001000
          13 57 -8 callgsubr
          hintmask 01001000
          -171 -484 rmoveto
          0 -99 -129 -74 -53 -25 31 55 133 66 195 121 59 67 -15 12 callgsubr
        </CharString>
        <CharString name="degree">
          35 427 42 193 43 hstem
          270 44 193 42 vstem
          270 565 rmoveto
          -83 56 -55 83 83 57 55 83 83 -57 57 -83 -83 -56 -57 -83 vhcurveto
          44 hmoveto
          58 38 39 57 58 40 -39 -58 -58 -40 -38 -58 -57 -38 38 58 vhcurveto
          endchar
        </CharString>
        <CharString name="dieresis">
          197 627 80 hstem
          243 55 131 53 vstem
          249 625 -53 callsubr
        </CharString>
        <CharString name="dieresis.cap">
          -144 292 -59 callsubr
          20 83 rlineto
          -49 hlineto
          endchar
        </CharString>
        <CharString name="divide">
          35 54 -21 230 59 13 90 hstem
          266 144 vstem
          155 263 rmoveto
          366 59 -366 hlineto
          111 13 rmoveto
          144 90 -144 hlineto
          41 -392 rmoveto
          61 93 -61 hlineto
          endchar
        </CharString>
        <CharString name="dollar">
          35 -120 110 225 457 hstemhm
          96 456 -262 315 hintmask 11010000
          605 647 rmoveto
          0 -44 12 -54 7 vhcurveto
          hintmask 11100000
          45 119 rlineto
          -47 hlineto
          -43 -114 rlineto
          -10 -10 1 -9 hhcurveto
          -140 -94 -75 -134 -82 46 -29 85 -29 hvcurveto
          -105 -277 rlineto
          -59 5 -59 9 0 vvcurveto
          -11 -48 rlineto
          0 49 -11 60 -6 vhcurveto
          -43 -115 rlineto
          44 hlineto
          42 112 rlineto
          -1 13 12 -1 13 hhcurveto
          143 91 87 142 85 -40 28 -89 31 hvcurveto
          96 253 rlineto
          54 -5 53 -9 0 vvcurveto
          hintmask 11010000
          -134 -387 rmoveto
          -107 -63 -65 -107 vhcurveto
          -22 hlineto
          102 267 rlineto
          68 -24 22 -17 -54 vvcurveto
          -201 252 rmoveto
          102 67 50 103 vhcurveto
          13 hlineto
          -92 -243 rlineto
          -65 23 -26 18 50 vvcurveto
          endchar
        </CharString>
        <CharString name="dotaccent">
          -308 225 610 -36 callsubr
        </CharString>
        <CharString name="dotaccent.cap">
          -308 178 -21 500 -20 161 78 hstem
          266 50 vstem
          266 798 -26 callsubr
          endchar
        </CharString>
        <CharString name="dotlessi">
          -46 callsubr
          hstem
          68 60 vstem
          68 hmoveto
          23 callsubr
        </CharString>
        <CharString name="dotlessj">
          -328 -33 callsubr
          endchar
        </CharString>
        <CharString name="e">
          -65 callgsubr
          hstem
          93 61 205 3 81 60 vstem
          256 44 -106 callgsubr
          endchar
        </CharString>
        <CharString name="eacute">
          -65 callgsubr
          106 -21 hstem
          93 61 205 3 81 60 vstem
          256 44 -106 callgsubr
          71 316 -91 callgsubr
        </CharString>
        <CharString name="ebreve">
          -65 callgsubr
          85 49 hstemhm
          93 61 123 51 31 3 81 60 -3 52 hintmask 1111111100000000
          256 44 -106 callgsubr
          43 442 -38 callgsubr
          hintmask 1111111010000000
          -90 callsubr
        </CharString>
        <CharString name="ecaron">
          -65 callgsubr
          102 -37 callsubr
          hstemhm
          93 61 128 112 -35 3 37 156 -112 60 hintmask 1111110101000000
          256 44 -106 callgsubr
          165 305 rmoveto
          156 145 -52 callgsubr
          -99 -95 -57 95 rlineto
          hintmask 1111111010000000
          -55 hlineto
          85 -145 rlineto
          endchar
        </CharString>
        <CharString name="ecircumflex">
          -67 44 546 -195 287 -173 226 hstemhm
          93 415 -212 84 -18 59 hintmask 10001000
          228 590 rmoveto
          68 hlineto
          hintmask 01001000
          97 92 rlineto
          hintmask 10010000
          54 -92 -30 callgsubr
          hintmask 00100100
          -87 -2 callsubr
          hintmask 00101000
          -41 hlineto
          hintmask 10001000
          -124 -691 rmoveto
          -75 callsubr
          hvcurveto
          56 hlineto
          hintmask 01001000
          -55 callgsubr
          hvcurveto
          hintmask 00100100
          -16 callgsubr
          vhcurveto
          hintmask 10010000
          -186 -83 -201 -170 -99 56 -49 91 89 87 30 0 hvcurveto
          4 49 rlineto
          0 -90 -25 -74 vhcurveto
          -81 241 rmoveto
          102 31 54 71 99 hhcurveto
          54 30 -17 -47 -86 -69 -23 -140 hvcurveto
          endchar
        </CharString>
        <CharString name="edieresis">
          -67 236 471 -312 230 0 82 hstemhm
          319 204 -161 87 54 0 hintmask 00110000
          263 625 3 callgsubr
          hintmask 00101100
          -17 callgsubr
          hintmask 00110000
          -3 callsubr
          hintmask 00101100
          -211 -663 rmoveto
          -61 -41 35 65 hvcurveto
          hintmask 10010000
          25 5 38 7 29 vhcurveto
          56 hlineto
          hintmask 01001100
          -55 callgsubr
          -16 callgsubr
          -186 -83 -201 -170 -99 56 -49 91 89 87 30 0 hvcurveto
          4 49 rlineto
          0 -90 -25 -74 vhcurveto
          -81 241 rmoveto
          102 31 54 71 99 hhcurveto
          54 30 -17 -47 -86 -69 -23 -140 hvcurveto
          endchar
        </CharString>
        <CharString name="edotaccent">
          -65 callgsubr
          hstem
          93 61 205 3 81 60 vstem
          256 44 -106 callgsubr
          112 325 -36 callsubr
        </CharString>
        <CharString name="egrave">
          -65 callgsubr
          hstem
          93 61 205 3 81 60 vstem
          256 44 -106 callgsubr
          23 449 -65 callsubr
          endchar
        </CharString>
        <CharString name="eight">
          35 -10 54 272 53 247 55 0 -20 hstem
          66 66 28 62 284 64 2 67 vstem
          440 671 rmoveto
          -204 -76 -113 -97 -53 15 -30 64 -32 hvcurveto
          -88 -36 -85 -63 -120 vvcurveto
          -101 86 -36 118 250 50 163 66 51 -16 46 -81 30 vhcurveto
          108 30 58 81 81 vvcurveto
          80 -59 53 -140 vhcurveto
          -156 -627 rmoveto
          -101 -51 34 58 108 88 51 76 21 hvcurveto
          104 hlineto
          68 -19 38 -20 -67 vvcurveto
          -60 -59 -106 -163 vhcurveto
          142 572 rmoveto
          104 42 -31 -65 -90 -104 -48 -55 -13 hvcurveto
          -104 hlineto
          -67 23 -20 31 42 vvcurveto
          72 52 79 152 vhcurveto
          endchar
        </CharString>
        <CharString name="eight.dnom">
          -110 26 callgsubr
          19 28 callsubr
          195 221 -104 callgsubr
        </CharString>
        <CharString name="eight.numr">
          368 26 callgsubr
          127 28 callsubr
          303 699 -104 callgsubr
        </CharString>
        <CharString name="eight.pnum">
          -33 -10 56 188 54 168 53 hstem
          69 66 283 64 vstem
          367 509 rmoveto
          -157 -70 -78 -80 -33 14 -31 52 -24 hvcurveto
          -70 -25 -67 -46 -100 vvcurveto
          -61 57 -41 112 181 63 80 102 39 -22 32 -56 20 vhcurveto
          72 19 58 44 84 vvcurveto
          58 -55 41 -112 vhcurveto
          -115 -463 rmoveto
          -80 -37 20 39 77 54 39 63 13 hvcurveto
          89 hlineto
          52 -13 25 -18 -29 vvcurveto
          -77 -46 -51 -120 vhcurveto
          97 410 rmoveto
          85 34 -21 -37 -67 -49 -25 -65 -18 hvcurveto
          -88 hlineto
          -52 16 -10 18 28 vvcurveto
          32 14 74 131 vhcurveto
          endchar
        </CharString>
        <CharString name="eightinferior">
          -110 26 callgsubr
          18 28 callsubr
          194 221 -104 callgsubr
        </CharString>
        <CharString name="eightsuperior">
          468 26 callgsubr
          151 28 callsubr
          327 799 -104 callgsubr
        </CharString>
        <CharString name="ellipsis">
          122 80 61 177 61 174 61 vstem
          57 hmoveto
          -38 callsubr
          215 -100 rmoveto
          -38 callsubr
          212 -100 rmoveto
          -38 callsubr
          endchar
        </CharString>
        <CharString name="emacron">
          -65 callgsubr
          124 56 hstem
          93 61 205 3 81 60 vstem
          256 44 -106 callgsubr
          30 357 -62 callgsubr
        </CharString>
        <CharString name="emdash">
          586 32 callgsubr
          1000 54 vlineto
          endchar
        </CharString>
        <CharString name="emdash.cap">
          586 30 callsubr
          1000 54 vlineto
          endchar
        </CharString>
        <CharString name="endash">
          86 32 callgsubr
          500 54 vlineto
          endchar
        </CharString>
        <CharString name="endash.cap">
          86 30 callsubr
          500 54 vlineto
          endchar
        </CharString>
        <CharString name="eng">
          -36 124 hmoveto
          88 374 rlineto
          0 85 77 71 57 22 -20 -48 1 vhcurveto
          1 -31 -8 -43 -12 -50 -57 -244 rcurveline
          -25 -105 -27 -29 -110 -59 12 -55 rcurveline
          133 67 40 43 29 121 61 261 rcurveline
          11 47 12 56 -2 39 rrcurveto
          79 -3 -34 29 -81 hhcurveto
          -64 -68 -49 -30 -32 hvcurveto
          18 70 rlineto
          -57 hlineto
          -117 -500 rlineto
          endchar
        </CharString>
        <CharString name="eogonek">
          -67 -182 54 118 54 -13 -20 225 49 173 51 hstemhm
          93 61 95 66 44 3 81 60 hintmask 1011111110000000
          394 -122 rmoveto
          -64 callsubr
          36 57 59 32 27 vhcurveto
          7 2 5 2 0 vvcurveto
          4 49 rlineto
          hintmask 1101111110000000
          0 -90 -25 -74 -75 callsubr
          vhcurveto
          56 hlineto
          -55 callgsubr
          -16 callgsubr
          -186 -83 -201 -170 -99 56 -49 91 29 27 3 5 26 hvcurveto
          -35 -34 -38 -48 -38 -76 callsubr
          -213 458 rmoveto
          102 31 54 71 99 hhcurveto
          54 30 -17 -47 -86 -69 -23 -140 hvcurveto
          endchar
        </CharString>
        <CharString name="equal">
          35 133 56 123 56 hstem
          123 429 vstem
          123 312 rmoveto
          429 56 -429 hlineto
          -235 vmoveto
          429 56 -429 hlineto
          endchar
        </CharString>
        <CharString name="eth">
          -11 -9 0 438 0 hstem
          94 59 340 52 vstem
          399 607 rmoveto
          68 -46 43 -68 -17 -103 rrcurveto
          0 -83 39 -72 -132 -115 -106 -167 -9 vhcurveto
          -86 -8 46 -79 127 hhcurveto
          143 95 106 261 62 hvcurveto
          29 123 -31 97 -86 67 89 56 rcurveline
          -23 40 -108 -68 -38 22 -46 18 -53 13 rlinecurve
          -25 -54 34 -11 34 -12 31 -16 rlinecurve
          -98 -61 24 -39 rlineto
          49 -163 rmoveto
          66 81 -36 -3 4 hvcurveto
          -166 -42 -66 -114 -111 hhcurveto
          -86 -33 45 64 5 hvcurveto
          119 3 79 91 100 hhcurveto
          endchar
        </CharString>
        <CharString name="exclam">
          -329 0 100 600 -20 hstem
          70 61 vstem
          120 223 rmoveto
          53 hlineto
          116 477 8 callgsubr
          -159 -700 rmoveto
          -38 callsubr
          endchar
        </CharString>
        <CharString name="exclamdown">
          -343 -200 -20 620 100 hstem
          173 61 vstem
          184 277 -23 callgsubr
        </CharString>
        <CharString name="exclamdown.cap">
          -330 -5 -20 620 100 hstem
          225 61 vstem
          236 472 -23 callgsubr
        </CharString>
        <CharString name="f">
          -220 -204 -21 672 53 180 52 hstem
          213 60 vstem
          250 447 rmoveto
          139 hlineto
          14 53 rlineto
          -142 hlineto
          12 47 rlineto
          92 23 23 41 57 hhcurveto
          33 41 -7 0 hvcurveto
          12 47 rlineto
          0 -46 12 -36 -91 -44 -49 -134 -32 vhcurveto
          -12 -49 rlineto
          -58 hlineto
          -13 -53 rlineto
          60 hlineto
          -156 -672 rlineto
          52 hlineto
          60 225 rlineto
          endchar
        </CharString>
        <CharString name="five">
          35 -8 54 312 55 193 54 hstem
          255 38 199 63 vstem
          255 660 rmoveto
          -105 -339 50 -9 rlineto
          0 94 46 75 81 42 -33 -62 -120 -95 -97 -119 -80 -110 27 0 vhcurveto
          -16 -50 rlineto
          0 109 -31 97 155 122 122 157 99 -65 43 -106 -72 -96 -46 0 vhcurveto
          77 239 rlineto
          322 hlineto
          12 54 rlineto
          endchar
        </CharString>
        <CharString name="five.dnom">
          -109 -6 callsubr
          46 88 50 58 vstem
          99 212 -99 callsubr
        </CharString>
        <CharString name="five.numr">
          369 -6 callsubr
          161 88 50 58 vstem
          214 690 -99 callsubr
        </CharString>
        <CharString name="five.pnum">
          -66 -9 54 217 53 -32 -21 hstemhm
          109 71 216 64 hintmask 10111000
          192 501 rmoveto
          -83 -266 42 -10 rlineto
          0 90 37 57 77 21 -27 -45 -80 -59 -65 -94 -66 -108 22 0 vhcurveto
          -20 -54 rlineto
          0 112 -22 72 148 79 90 119 vhcurveto
          hintmask 11011000
          76 -52 39 -93 -56 -79 -32 0 vhcurveto
          54 161 rlineto
          265 hlineto
          14 57 rlineto
          endchar
        </CharString>
        <CharString name="fiveinferior">
          -109 -6 callsubr
          46 88 50 58 vstem
          99 212 -99 callsubr
        </CharString>
        <CharString name="fivesuperior">
          469 -6 callsubr
          186 88 50 58 vstem
          239 790 -99 callsubr
        </CharString>
        <CharString name="florin">
          35 -243 57 541 58 209 59 -9 -20 hstemhm
          332 55 hintmask 11101000
          364 355 rmoveto
          162 hlineto
          14 58 rlineto
          -163 hlineto
          10 43 rlineto
          114 28 24 52 65 hhcurveto
          28 71 -4 0 hvcurveto
          hintmask 11011000
          14 54 rlineto
          hintmask 11101000
          2 -8 -60 7 -41 hhcurveto
          -88 -47 -49 -160 -41 hvcurveto
          -14 -59 rlineto
          -108 hlineto
          -12 -58 rlineto
          107 hlineto
          -100 -418 rlineto
          -92 -23 -32 -31 -48 hhcurveto
          -26 -35 3 0 hvcurveto
          -13 -53 rlineto
          0 33 -7 32 84 55 44 131 31 vhcurveto
          endchar
        </CharString>
        <CharString name="four">
          35 127 53 hstem
          90 67 211 61 vstem
          368 -1 rmoveto
          61 hlineto
          30 128 rlineto
          84 hlineto
          12 53 rlineto
          -84 hlineto
          52 225 -14 callsubr
          -52 -225 rlineto
          -253 hlineto
          325 480 rlineto
          -68 hlineto
          -324 -486 -11 -47 rlineto
          319 hlineto
          endchar
        </CharString>
        <CharString name="four.dnom">
          -79 -17 callsubr
          hstem
          154 53 vstem
          154 -100 -100 callsubr
        </CharString>
        <CharString name="four.numr">
          399 -17 callsubr
          hstem
          256 53 vstem
          256 378 -100 callsubr
        </CharString>
        <CharString name="four.pnum">
          -68 21 -21 104 54 342 -20 hstem
          305 61 vstem
          305 hmoveto
          61 hlineto
          26 104 -30 callgsubr
          13 54 -14 callsubr
          33 131 -14 callsubr
          -32 -131 rlineto
          -204 hlineto
          251 342 rlineto
          -72 hlineto
          -254 -347 -12 -49 rlineto
          277 hlineto
          endchar
        </CharString>
        <CharString name="fourinferior">
          -79 -17 callsubr
          hstem
          153 53 vstem
          153 -100 -100 callsubr
        </CharString>
        <CharString name="foursuperior">
          499 -17 callsubr
          hstem
          279 53 vstem
          279 478 -100 callsubr
        </CharString>
        <CharString name="fraction">
          -517 -3 -21 711 -20 hstem
          -154 57 370 56 vstem
          -97 -24 rmoveto
          426 690 -56 21 -427 -690 rlineto
          endchar
        </CharString>
        <CharString name="g">
          -27 callsubr
          hstem
          20 58 304 59 vstem
          -106 callsubr
          endchar
        </CharString>
        <CharString name="gbreve">
          -27 callsubr
          84 49 hstem
          20 58 198 51 55 59 58 52 vstem
          -106 callsubr
          7 503 -38 callgsubr
          -90 callsubr
        </CharString>
        <CharString name="gcircumflex">
          -27 callsubr
          101 -37 callsubr
          hstemhm
          20 58 140 17 callsubr
          -105 59 hintmask 1111111010000000
          -106 callsubr
          -51 366 rmoveto
          62 hlineto
          hintmask 1111111100000000
          -89 callsubr
        </CharString>
        <CharString name="gcommaaccent">
          -61 -185 130 -52 895 -761 420 hstemhm
          124 65 -34 221 hintmask 01001000
          412 788 rmoveto
          -92 -203 -9 callsubr
          85 203 rlineto
          hintmask 10110000
          -272 -1025 rmoveto
          158 94 88 94 75 -43 29 -110 13 hvcurveto
          -69 9 -23 6 25 vvcurveto
          29 35 44 0 vhcurveto
          0 19 -2 11 145 66 114 87 34 -8 22 -11 17 vhcurveto
          97 hlineto
          12 53 -148 -6 rlineto
          0 -38 16 -52 -130 -70 -111 -92 -60 24 -38 45 -20 vhcurveto
          0 -53 -54 -44 vvcurveto
          hintmask 01001000
          -19 6 -13 9 -9 vhcurveto
          -58 -31 -77 -49 -77 vvcurveto
          hintmask 10110000
          -79 65 -51 104 vhcurveto
          88 247 rmoveto
          76 -8 29 -15 -46 vvcurveto
          -77 -89 -49 -99 -78 -38 39 52 49 60 46 51 26 vhcurveto
          13 -5 28 -6 47 -6 rrcurveto
          -8 214 rmoveto
          -65 -22 35 51 62 48 86 90 70 25 -31 -60 -52 -43 -91 -103 hvcurveto
          endchar
        </CharString>
        <CharString name="gdotaccent">
          -27 callsubr
          hstem
          20 58 304 59 vstem
          -106 callsubr
          62 386 -36 callsubr
        </CharString>
        <CharString name="germandbls">
          7 -10 53 637 52 hstemhm
          68 57 74 118 161 61 -37 61 hintmask 11110100
          125 hmoveto
          123 524 rlineto
          111 25 39 45 92 hhcurveto
          hintmask 11111000
          71 27 -24 -45 -54 -23 -29 -54 -28 hvcurveto
          -75 -39 -26 -23 -54 vvcurveto
          -37 17 -23 57 -35 vhcurveto
          66 -40 14 -15 -42 vvcurveto
          -89 -59 -60 -103 -41 -65 13 0 vhcurveto
          -11 -48 rlineto
          0 66 -18 52 vhcurveto
          hintmask 11110100
          141 81 82 125 69 -25 17 -68 42 hvcurveto
          -52 32 -9 12 25 vvcurveto
          26 22 15 59 29 vhcurveto
          60 29 37 44 81 vvcurveto
          72 -49 42 -106 -120 -60 -52 -149 -35 vhcurveto
          -125 -531 rlineto
          endchar
        </CharString>
        <CharString name="grave">
          -7 318 20 callgsubr
          endchar
        </CharString>
        <CharString name="grave.cap">
          -41 364 -68 callgsubr
          endchar
        </CharString>
        <CharString name="greater">
          35 35 -21 472 -20 hstem
          508 252 rmoveto
          -359 -174 rlineto
          -64 vlineto
          420 210 rlineto
          54 vlineto
          -420 208 rlineto
          -63 vlineto
          endchar
        </CharString>
        <CharString name="greaterequal">
          35 23 55 52 61 240 62 hstemhm
          126 423 -72 72 hintmask 11110000
          hintmask 11101000
          477 316 rmoveto
          -351 -125 rlineto
          -61 vlineto
          423 156 rlineto
          56 vlineto
          -423 151 rlineto
          -62 vlineto
          423 -353 rmoveto
          -423 -55 423 hlineto
          endchar
        </CharString>
        <CharString name="guillemotleft">
          -88 78 0 11 0 0 56 99 -21 116 63 -54 0 hstemhm
          93 51 -46 50 125 50 hintmask 1011101010000000
          478 402 rmoveto
          -29 callgsubr
          136 92 rlineto
          -156 63 rmoveto
          hintmask 1011010110000000
          -29 callgsubr
          rlineto
          hintmask 1101101010000000
          136 92 rlineto
          endchar
        </CharString>
        <CharString name="guillemotright">
          -44 9 callsubr
          169 50 hintmask 10011100
          292 89 -24 callgsubr
          -238 -63 -24 callgsubr
          endchar
        </CharString>
        <CharString name="guilsinglleft">
          -263 89 0 0 56 194 63 hstem
          98 50 vstem
          303 402 rmoveto
          -29 callgsubr
          136 92 rlineto
          endchar
        </CharString>
        <CharString name="guilsinglright">
          -263 9 callsubr
          hintmask 10011000
          73 89 rmoveto
          205 137 11 31 rlineto
          hintmask 01101000
          -135 145 -17 -56 91 -102 rlineto
          hintmask 10011000
          -136 -92 rlineto
          endchar
        </CharString>
        <CharString name="h">
          -30 21 -21 456 54 212 0 callsubr
          129 hmoveto
          -85 callgsubr
          74 320 32 callsubr
        </CharString>
        <CharString name="hbar">
          -30 21 -21 456 54 81 53 78 0 callsubr
          150 591 rmoveto
          55 hlineto
          -136 -591 rlineto
          60 hlineto
          -85 callgsubr
          43 189 rlineto
          151 hlineto
          13 53 rlineto
          -151 18 callgsubr
          -60 hlineto
          -18 -78 -8 callgsubr
          endchar
        </CharString>
        <CharString name="hcircumflex">
          -30 21 -21 456 54 212 0 callsubr
          129 hmoveto
          -85 callgsubr
          74 320 -12 callgsubr
          226 767 -93 callsubr
          -30 hlineto
          endchar
        </CharString>
        <CharString name="hungarumlaut">
          135 490 586 -35 callgsubr
        </CharString>
        <CharString name="hungarumlaut.cap">
          135 529 759 -18 callgsubr
          -31 callgsubr
          endchar
        </CharString>
        <CharString name="hyphen">
          -171 240 56 hstem
          123 246 vstem
          109 240 14 callsubr
        </CharString>
        <CharString name="hyphen.cap">
          -172 270 56 hstem
          129 246 vstem
          115 270 14 callsubr
        </CharString>
        <CharString name="i">
          -46 callsubr
          136 80 hstem
          68 hmoveto
          -70 callgsubr
          26 116 rmoveto
          61 hlineto
          18 80 8 callgsubr
          endchar
        </CharString>
        <CharString name="iacute">
          -46 callsubr
          135 -21 hstem
          68 60 vstem
          68 hmoveto
          -70 callgsubr
          12 101 -91 callgsubr
        </CharString>
        <CharString name="ibreve">
          -46 callsubr
          114 49 hstemhm
          68 60 -3 51 172 52 hintmask 11110100
          68 hmoveto
          -70 callgsubr
          hintmask 11101100
          -59 227 -38 callgsubr
          -90 callsubr
        </CharString>
        <CharString name="icircumflex">
          -328 611 -21 92 -20 hstem
          88 67 vstem
          88 590 31 callgsubr
          -86 -2 callsubr
          -42 hlineto
          -171 -735 15 callgsubr
        </CharString>
        <CharString name="idieresis">
          -328 646 -21 82 -20 hstem
          107 55 vstem
          107 625 rmoveto
          55 hlineto
          -3 callsubr
          167 -82 rmoveto
          54 4 callsubr
          -242 -707 15 callgsubr
        </CharString>
        <CharString name="igrave">
          -46 callsubr
          hstem
          68 60 vstem
          68 hmoveto
          -70 callgsubr
          -77 234 -65 callsubr
          endchar
        </CharString>
        <CharString name="imacron">
          -46 callsubr
          153 56 hstem
          68 60 vstem
          68 hmoveto
          -70 callgsubr
          -79 142 -62 callgsubr
        </CharString>
        <CharString name="infinity">
          35 121 55 232 55 hstem
          98 59 380 59 vstem
          219 121 rmoveto
          67 29 26 86 32 hvcurveto
          -71 28 34 -41 65 hhcurveto
          83 39 63 108 107 -39 64 -81 -67 -34 -42 -72 -28 hvcurveto
          72 -29 -34 42 -67 hhcurveto
          -80 -39 -64 -107 -108 39 -63 82 hvcurveto
          105 171 rmoveto
          -82 -32 -8 -34 -61 hhcurveto
          -48 -18 49 67 74 17 42 49 61 16 -60 -56 24 hvcurveto
          45 hmoveto
          56 25 16 60 60 hhcurveto
          49 18 -42 -74 -74 -19 -42 -48 -60 -16 61 55 -25 hvcurveto
          endchar
        </CharString>
        <CharString name="integral">
          35 -184 55 854 54 hstem
          317 61 vstem
          378 -4 rmoveto
          575 vlineto
          117 28 37 53 38 38 -5 0 vhcurveto
          3 51 rlineto
          0 -45 8 -44 -87 -45 -50 -158 vhcurveto
          -574 vlineto
          -95 -22 -31 -60 -31 -42 4 0 vhcurveto
          -3 -52 rlineto
          0 50 -7 36 89 44 44 136 vhcurveto
          endchar
        </CharString>
        <CharString name="iogonek">
          -327 6 callgsubr
          30 -21 500 -20 136 80 hstemhm
          -36 66 hintmask 11011100
          109 -142 rmoveto
          -64 callsubr
          vhcurveto
          hintmask 10111100
          39 67 62 32 25 vhcurveto
          116 500 8 callgsubr
          -115 -493 rlineto
          -36 -29 -70 -68 -52 -76 callsubr
          108 809 rmoveto
          61 hlineto
          18 80 -14 callsubr
          endchar
        </CharString>
        <CharString name="itilde">
          -46 callsubr
          140 -15 callgsubr
          68 60 hintmask 11101000
          68 hmoveto
          -70 callgsubr
          201 214 -56 callsubr
          hintmask 11011000
          -96 callgsubr
          hintmask 11101000
          -83 callsubr
          endchar
        </CharString>
        <CharString name="j">
          -328 -237 49 -28 -21 854 78 hstem
          68 60 56 60 vstem
          -33 callsubr
          28 117 rmoveto
          60 18 callgsubr
          -60 hlineto
          endchar
        </CharString>
        <CharString name="jcircumflex">
          -46 callsubr
          hstemhm
          -92 160 -140 316 hintmask 11100000
          68 hmoveto
          -26 -113 -10 -12 -124 -63 rrcurveto
          hintmask 11010000
          20 -49 151 70 14 17 35 150 rlinecurve
          116 500 8 callgsubr
          hintmask 11100000
          -93 90 rmoveto
          62 hlineto
          -89 callsubr
        </CharString>
        <CharString name="k">
          -85 21 -21 247 52 201 -20 hstem
          69 60 56 0 167 64 vstem
          129 hmoveto
          -54 callgsubr
        </CharString>
        <CharString name="kcommaaccent">
          -85 21 -21 247 52 201 -20 hstemhm
          69 60 51 56 -51 0 167 64 hintmask 11111010
          95 -34 callgsubr
          -51 73 rmoveto
          hintmask 11110110
          -54 callgsubr
        </CharString>
        <CharString name="l">
          -20 callsubr
          endchar
        </CharString>
        <CharString name="lacute">
          -20 callsubr
          11 68 -88 callsubr
          endchar
        </CharString>
        <CharString name="lcaron">
          -286 21 -21 488 -21 228 -20 47 -20 hstem
          74 59 222 55 vstem
          410 0 callgsubr
          54 hlineto
          -282 -467 15 callsubr
        </CharString>
        <CharString name="lcommaaccent">
          -318 21 -21 722 -20 hstemhm
          60 56 -42 59 hintmask 11100000
          60 -73 -75 callgsubr
          hintmask 11010000
          99 276 15 callsubr
        </CharString>
        <CharString name="less">
          35 35 -21 472 -20 hstem
          524 423 rmoveto
          63 vlineto
          -420 -208 rlineto
          -54 vlineto
          420 -210 rlineto
          64 vlineto
          -359 174 rlineto
          endchar
        </CharString>
        <CharString name="lessequal">
          35 23 55 52 61 240 62 hstemhm
          111 72 -72 423 hintmask 11101000
          534 431 rmoveto
          62 vlineto
          -423 -151 rlineto
          -56 vlineto
          423 -156 rlineto
          61 vlineto
          hintmask 11110000
          -351 125 rlineto
          hintmask 11101000
          -72 -293 rmoveto
          423 55 -423 hlineto
          endchar
        </CharString>
        <CharString name="logicalnot">
          35 141 -21 163 55 hstem
          494 57 vstem
          126 338 rmoveto
          -55 368 -163 57 218 vlineto
          endchar
        </CharString>
        <CharString name="lozenge">
          35 162 3 330 3 hstem
          514 330 rmoveto
          -145 -165 rlineto
          36 hlineto
          174 165 -174 165 rlineto
          -36 hlineto
          -238 -165 rmoveto
          174 -165 rlineto
          34 hlineto
          -143 165 143 165 rlineto
          -34 hlineto
          62 -333 rmoveto
          2 3 10 callsubr
          3 -3 rlineto
          -3 333 rmoveto
          30 hlineto
          -2 3 rlineto
          -25 hlineto
          endchar
        </CharString>
        <CharString name="lslash">
          -260 21 -21 471 -21 272 -20 hstemhm
          73 255 -228 59 hintmask 11101000
          100 hmoveto
          59 hlineto
          77 336 112 69 rlineto
          hintmask 11110000
          -20 45 -76 -48 74 320 -54 callsubr
          -84 -363 -110 -68 21 -43 74 45 rlineto
          endchar
        </CharString>
        <CharString name="m">
          249 0 -20 497 -21 hstem
          68 60 300 60 240 61 vstem
          429 hmoveto
          59 254 rlineto
          15 61 2 43 0 vvcurveto
          0 81 98 68 48 26 -30 -50 -37 -11 -53 -46 callgsubr
          60 hlineto
          59 254 rlineto
          8 37 12 52 44 vvcurveto
          74 -40 49 -77 -85 -84 -94 0 0 -7 94 -103 -92 -79 -107 0 vhcurveto
          20 97 rlineto
          -58 hlineto
          -116 -500 rlineto
          60 hlineto
          77 331 rlineto
          0 93 125 75 49 25 -29 -50 -34 -11 -57 -46 callgsubr
          endchar
        </CharString>
        <CharString name="macron">
          -92 633 56 hstem
          232 642 -62 callgsubr
        </CharString>
        <CharString name="macron.cap">
          -92 267 828 -28 callgsubr
          endchar
        </CharString>
        <CharString name="minus">
          35 223 56 hstem
          125 425 vstem
          125 223 rmoveto
          425 56 -425 hlineto
          endchar
        </CharString>
        <CharString name="mu">
          35 -204 -21 225 44 -33 -21 285 -20 245 -20 hstemhm
          46 60 29 61 206 58 hintmask 10111111
          46 -225 rmoveto
          60 hlineto
          58 249 rlineto
          -22 20 29 -12 39 hhcurveto
          90 81 107 0 hvcurveto
          hintmask 11011111
          -80 callsubr
          -60 hlineto
          -22 callgsubr
          -74 callgsubr
          22 3 29 5 26 vhcurveto
          18 75 rlineto
          -1 hlineto
          53 225 -54 callsubr
          -53 -225 rlineto
          endchar
        </CharString>
        <CharString name="multiply">
          35 67 -21 410 -20 hstem
          171 456 rmoveto
          -39 -40 167 -165 -167 -166 39 -39 166 167 166 -168 39 40 -167 166 167 166 -39 39 -166 -168 rlineto
          endchar
        </CharString>
        <CharString name="n">
          -25 callgsubr
          hstemhm
          68 60 242 59 hintmask 11011000
          -64 callgsubr
          -18 callsubr
          hintmask 10111000
          -45 callgsubr
          endchar
        </CharString>
        <CharString name="nacute">
          -25 callgsubr
          105 -21 hstemhm
          68 60 242 59 hintmask 11011100
          13 callgsubr
          hintmask 10111100
          -59 callgsubr
          174 601 -91 callgsubr
        </CharString>
        <CharString name="ncaron">
          -25 callgsubr
          101 -37 callsubr
          hstemhm
          68 60 152 112 -22 59 -32 156 hintmask 1101110100000000
          -64 callgsubr
          hintmask 1011111010000000
          -18 callsubr
          hintmask 1101110100000000
          -45 callgsubr
          329 590 rmoveto
          156 145 -52 callgsubr
          -99 -95 -57 95 rlineto
          hintmask 1101111010000000
          -55 hlineto
          85 -145 rlineto
          endchar
        </CharString>
        <CharString name="ncommaaccent">
          -25 callgsubr
          hstemhm
          68 60 89 56 97 59 hintmask 11011100
          -64 callgsubr
          -18 callsubr
          hintmask 10111100
          -45 callgsubr
          64 -34 callgsubr
          endchar
        </CharString>
        <CharString name="nine">
          35 -10 57 205 56 327 -21 hstem
          153 62 292 72 vstem
          78 11 rmoveto
          0 86 -21 74 162 132 98 260 47 vhcurveto
          204 42 -45 118 -147 hhcurveto
          -143 -108 -96 -127 -25 hvcurveto
          -134 -25 62 -61 122 hhcurveto
          71 124 38 0 hvcurveto
          -167 -43 -92 -76 -119 hhcurveto
          -78 -76 18 0 hvcurveto
          232 243 rmoveto
          -94 -43 43 99 21 hvcurveto
          102 21 84 62 95 hhcurveto
          118 26 -106 -164 -38 hvcurveto
          0 -122 -36 -68 vhcurveto
          endchar
        </CharString>
        <CharString name="nine.dnom">
          -110 -5 callsubr
          54 55 104 50 vstem
          14 -99 -101 callgsubr
        </CharString>
        <CharString name="nine.numr">
          368 -5 callsubr
          166 55 104 50 vstem
          126 379 -101 callgsubr
        </CharString>
        <CharString name="nine.pnum">
          -50 -10 54 147 52 216 50 hstem
          113 60 250 77 vstem
          62 8 rmoveto
          0 83 -18 66 196 93 175 198 87 -42 59 -105 -184 -56 -118 -89 -60 29 -51 117 58 66 22 18 40 vhcurveto
          -121 -26 -81 -66 -96 hhcurveto
          -68 -72 14 0 hvcurveto
          197 185 rmoveto
          -89 -15 35 30 32 13 119 153 81 21 -45 -58 -24 -3 -31 -4 -20 hvcurveto
          0 -89 -38 -68 vhcurveto
          endchar
        </CharString>
        <CharString name="nineinferior">
          -110 -5 callsubr
          53 55 104 50 vstem
          13 -99 -101 callgsubr
        </CharString>
        <CharString name="ninesuperior">
          468 -5 callsubr
          188 55 104 50 vstem
          148 479 -101 callgsubr
        </CharString>
        <CharString name="notequal">
          35 -1 525 -212 56 hstemhm
          419 50 hintmask 01100000
          122 312 rmoveto
          204 hlineto
          -54 -123 rlineto
          -150 -56 125 hlineto
          hintmask 10100000
          -58 -134 50 -20 67 154 rlineto
          245 56 -220 hlineto
          hintmask 01100000
          54 123 rlineto
          166 56 -142 hlineto
          60 136 rlineto
          hintmask 10100000
          -50 20 rlineto
          hintmask 01100000
          -69 -156 rlineto
          -228 hlineto
          endchar
        </CharString>
        <CharString name="ntilde">
          -25 callgsubr
          110 -15 callgsubr
          68 60 242 59 hintmask 11010110
          13 callgsubr
          hintmask 10110110
          -59 callgsubr
          419 714 -56 callsubr
          hintmask 11001110
          -96 callgsubr
          hintmask 11010110
          -83 callsubr
          endchar
        </CharString>
        <CharString name="numbersign">
          35 140 114 218 114 vstem
          573 184 rmoveto
          13 52 rlineto
          -114 hlineto
          48 196 rlineto
          114 hlineto
          13 52 rlineto
          -114 22 callsubr
          -167 22 callsubr
          -114 hlineto
          -13 -52 rlineto
          114 hlineto
          -48 -196 rlineto
          -114 hlineto
          -13 -52 rlineto
          114 19 callsubr
          167 19 callsubr
          -43 52 rmoveto
          -167 hlineto
          48 196 rlineto
          167 hlineto
          endchar
        </CharString>
        <CharString name="o">
          -43 callsubr
          hstem
          94 164 194 61 vstem
          345 509 rmoveto
          -105 callgsubr
          endchar
        </CharString>
        <CharString name="oacute">
          -43 callsubr
          106 -21 hstem
          94 164 194 61 vstem
          345 509 rmoveto
          -105 callgsubr
          48 558 -91 callgsubr
        </CharString>
        <CharString name="obreve">
          -43 callsubr
          85 49 hstemhm
          94 164 16 51 127 61 -16 52 hintmask 11111100
          345 509 rmoveto
          -105 callgsubr
          16 684 -38 callgsubr
          hintmask 11111010
          -90 callsubr
        </CharString>
        <CharString name="ocircumflex">
          -31 509 81 113 -21 hstemhm
          94 368 -151 126 hintmask 11010000
          244 590 rmoveto
          67 hlineto
          97 92 rlineto
          hintmask 11100000
          7 callsubr
          62 hlineto
          hintmask 11010000
          -87 -2 callsubr
          -41 hlineto
          -51 -226 rmoveto
          hintmask 11100000
          -105 callgsubr
          endchar
        </CharString>
        <CharString name="odieresis">
          -43 callsubr
          118 80 hstemhm
          94 164 7 55 131 53 -52 61 hintmask 11111100
          13 callsubr
          -110 57 -48 107 hvcurveto
          hintmask 11111010
          157 98 164 190 110 -58 55 -110 hvcurveto
          -87 -466 rmoveto
          -70 -34 37 68 161 77 148 114 73 34 -46 -66 -161 -76 -141 -118 hvcurveto
          13 582 -53 callsubr
        </CharString>
        <CharString name="oe">
          284 -10 57 178 51 177 56 hstem
          109 61 275 65 261 59 vstem
          584 47 rmoveto
          -69 -29 30 59 -1 hvcurveto
          -1 25 6 30 8 34 318 -2 rcurveline
          14 49 10 40 4 35 -1 29 rlinecurve
          91 -2 -51 42 -91 hhcurveto
          -80 -66 -30 -73 -43 hvcurveto
          71 -11 -47 32 -84 hhcurveto
          -154 -65 -82 -169 -40 hvcurveto
          -13 -53 -7 -48 2 -46 rrcurveto
          -84 3 47 -37 105 hhcurveto
          92 55 29 64 40 hvcurveto
          -59 12 41 -34 81 hhcurveto
          77 104 14 0 hvcurveto
          9 52 rlineto
          0 -107 -9 -66 vhcurveto
          -326 hmoveto
          -77 -29 25 56 -2 hvcurveto
          -1 34 8 42 13 54 rrcurveto
          139 32 49 56 105 hhcurveto
          58 31 -21 -47 10 hvcurveto
          9 -43 -10 -44 -9 -40 rrcurveto
          -124 -32 -29 -87 -126 hhcurveto
          252 229 rmoveto
          126 30 61 50 86 hhcurveto
          63 33 -24 -62 1 hvcurveto
          -25 -4 -30 -9 -37 vhcurveto
          endchar
        </CharString>
        <CharString name="ogonek">
          -104 6 callgsubr
          hstem
          137 66 vstem
          282 -142 rmoveto
          -64 callsubr
          39 68 67 30 23 vhcurveto
          -52 8 rlineto
          -34 -26 -78 -73 -54 -76 callsubr
          endchar
        </CharString>
        <CharString name="ograve">
          -43 callsubr
          hstem
          94 164 194 61 vstem
          345 509 rmoveto
          -105 callgsubr
          26 691 -65 callsubr
          endchar
        </CharString>
        <CharString name="ohungarumlaut">
          -43 callsubr
          hstem
          94 164 194 61 vstem
          345 509 rmoveto
          -105 callgsubr
          182 543 -35 callgsubr
        </CharString>
        <CharString name="omacron">
          -43 callsubr
          124 56 hstem
          94 164 194 61 vstem
          345 509 rmoveto
          -105 callgsubr
          -8 599 -62 callgsubr
        </CharString>
        <CharString name="one">
          35 585 76 hstem
          240 16 61 61 vstem
          240 529 rmoveto
          16 -51 195 107 -134 -585 -30 callgsubr
          152 661 rlineto
          -54 hlineto
          endchar
        </CharString>
        <CharString name="one.dnom">
          -79 24 callsubr
          185 68 vstem
          84 143 -81 callsubr
          endchar
        </CharString>
        <CharString name="one.numr">
          399 24 callsubr
          288 68 vstem
          187 621 -81 callsubr
          endchar
        </CharString>
        <CharString name="one.pnum">
          -206 21 -21 500 -20 hstem
          316 61 vstem
          111 386 rmoveto
          17 -52 168 93 -106 -427 rlineto
          63 hlineto
          124 500 -14 callsubr
          endchar
        </CharString>
        <CharString name="onehalf">
          84 0 49 -35 -21 277 51 178 9 callgsubr
          184 57 -19 56 hintmask 0111111110000000
          -48 callgsubr
          hintmask 1011111101000000
          467 -14 -101 callsubr
        </CharString>
        <CharString name="oneinferior">
          -79 24 callsubr
          187 68 vstem
          86 143 -81 callsubr
          endchar
        </CharString>
        <CharString name="onequarter">
          59 14 -21 28 -17 callsubr
          207 9 callgsubr
          125 53 6 57 hintmask 1011111111100000
          -48 callgsubr
          hintmask 0111111111100000
          367 -14 -100 callsubr
        </CharString>
        <CharString name="onesuperior">
          499 24 callsubr
          306 68 vstem
          205 -10 callgsubr
          endchar
        </CharString>
        <CharString name="ordfeminine">
          -177 406 564 rmoveto
          71 17 -29 24 -66 hhcurveto
          -45 -73 -13 0 hvcurveto
          -6 -40 rlineto
          0 75 7 37 33 12 -12 -35 -8 vhcurveto
          -6 -22 -92 -6 -65 -4 -29 -26 -13 -53 rlinecurve
          -53 -13 23 -34 48 hhcurveto
          54 64 24 0 hvcurveto
          -16 12 11 -8 43 hhcurveto
          11 40 -11 3 -11 5 -5 10 rlinecurve
          -36 78 rmoveto
          -17 -73 rlineto
          0 -53 -18 -39 -24 -10 13 29 7 vhcurveto
          7 29 15 13 32 2 rrcurveto
          endchar
        </CharString>
        <CharString name="ordmasculine">
          -185 321 658 rmoveto
          -86 -47 -40 -103 -25 hvcurveto
          -5 -21 -3 -18 -17 vvcurveto
          -60 -1 36 -33 62 hhcurveto
          89 48 44 100 23 hvcurveto
          5 24 4 22 -2 27 rrcurveto
          53 -3 -40 22 -55 hhcurveto
          -57 -241 rmoveto
          -37 -17 15 34 14 3 16 5 20 hvcurveto
          68 16 27 24 50 hhcurveto
          36 16 -12 -34 -13 -1 -16 -4 -19 hvcurveto
          -72 -18 -26 -25 -50 hhcurveto
          endchar
        </CharString>
        <CharString name="oslash">
          -32 -96 246 111 -21 hstemhm
          99 186 -26 278 hintmask 11100000
          346 511 2 callsubr
          -57 15 -40 29 -26 hvcurveto
          -78 -123 38 -16 73 119 rlineto
          hintmask 11010000
          -10 24 29 -5 34 hhcurveto
          157 98 164 190 58 -17 43 -32 28 hvcurveto
          72 113 -38 16 -67 -109 rlineto
          10 -24 -29 6 -33 hhcurveto
          -87 -466 rmoveto
          -22 -19 3 8 -15 hvcurveto
          114 184 115 181 rlineto
          14 -19 7 -26 -29 vvcurveto
          -161 -76 -141 -118 vhcurveto
          -86 36 rmoveto
          -12 17 -6 23 29 vvcurveto
          161 77 148 114 22 19 -4 -8 15 vhcurveto
          hintmask 11100000
          -117 -189 rlineto
          endchar
        </CharString>
        <CharString name="oslashacute">
          -31 -96 244 113 -21 375 -21 hstemhm
          103 186 -31 283 hintmask 11110000
          13 callsubr
          -58 15 -41 31 -26 hvcurveto
          -75 -119 38 -16 71 115 rlineto
          hintmask 11101000
          -9 23 28 -4 33 hhcurveto
          157 98 164 190 57 -16 42 -30 28 hvcurveto
          74 117 -38 16 -69 -112 rlineto
          11 -25 -29 6 -35 hhcurveto
          -171 -433 rmoveto
          -14 18 -6 24 30 vvcurveto
          161 77 148 114 23 20 -5 -9 16 vhcurveto
          hintmask 11110000
          -115 -185 rlineto
          hintmask 11101000
          -31 -215 rmoveto
          -21 -18 3 7 -14 hvcurveto
          116 187 112 177 rlineto
          13 -19 6 -25 -28 vvcurveto
          -161 -76 -141 -118 vhcurveto
          40 558 -91 callgsubr
        </CharString>
        <CharString name="otilde">
          -43 callsubr
          111 -15 callgsubr
          94 164 194 61 hintmask 11101100
          345 509 rmoveto
          -105 callgsubr
          276 671 -56 callsubr
          hintmask 11011100
          -96 callgsubr
          hintmask 11101100
          -83 callsubr
          endchar
        </CharString>
        <CharString name="p">
          -33 -225 -20 235 53 0 -20 433 54 hstem
          17 59 379 61 vstem
          17 -225 rmoveto
          59 hlineto
          54 233 rlineto
          0 74 -18 63 161 88 216 162 90 -38 52 -88 -87 -83 -109 0 vhcurveto
          22 99 rlineto
          -58 hlineto
          190 -44 rmoveto
          57 24 -30 -60 -124 -65 -199 -123 -59 -67 15 0 hvcurveto
          63 269 rlineto
          0 100 129 70 vhcurveto
          endchar
        </CharString>
        <CharString name="paragraph">
          29 21 -21 646 54 hstem
          149 265 -125 49 46 52 vstem
          384 hmoveto
          52 hlineto
          154 646 rlineto
          78 hlineto
          11 54 rlineto
          -310 hlineto
          -131 -91 -120 -104 -71 40 -66 104 -1 hvcurveto
          -82 -338 rlineto
          52 hlineto
          155 646 rlineto
          122 hlineto
          endchar
        </CharString>
        <CharString name="parenleft">
          -299 88 62 -42 56 148 58 hintmask 10100000
          312 748 -49 callgsubr
        </CharString>
        <CharString name="parenleft.cap">
          -301 95 62 -42 56 148 58 hintmask 10100000
          319 778 -49 callgsubr
        </CharString>
        <CharString name="parenright">
          -300 0 58 148 56 -42 62 hintmask 10100000
          58 -118 -50 callsubr
        </CharString>
        <CharString name="parenright.cap">
          -299 8 58 148 56 -42 62 hintmask 10100000
          66 -88 -50 callsubr
        </CharString>
        <CharString name="partialdiff">
          35 -9 54 329 54 250 54 hstem
          134 63 318 64 vstem
          181 631 rmoveto
          0 86 47 72 125 47 -85 -196 4 vhcurveto
          0 -91 31 -83 -129 -78 -84 -130 -152 75 -71 145 159 66 122 252 262 -74 105 -155 -88 -85 -52 0 vhcurveto
          170 -306 rmoveto
          79 90 -32 0 hvcurveto
          -198 -2 -46 -99 -114 hhcurveto
          -103 -54 61 108 94 53 66 97 hvcurveto
          endchar
        </CharString>
        <CharString name="percent">
          35 0 44 -28 -21 238 44 148 44 189 44 4 -20 hstemhm
          167 50 0 113 0 51 -39 51 0 113 0 51 hintmask 0111100100100000
          297 658 rmoveto
          -41 -23 -31 -61 -16 hvcurveto
          -63 -15 7 -34 41 hhcurveto
          42 23 33 63 15 hvcurveto
          62 16 -7 31 -42 hhcurveto
          -131 -652 rmoveto
          44 -11 344 699 rlineto
          hintmask 1011011010100000
          -44 12 rlineto
          -343 -140 rmoveto
          hintmask 1011101010100000
          95 24 52 41 65 hhcurveto
          65 32 -41 -96 -24 hvcurveto
          -96 -24 -53 -44 -65 hhcurveto
          -65 -31 44 97 24 hvcurveto
          hintmask 1011101001010000
          175 -425 rmoveto
          -66 callgsubr
        </CharString>
        <CharString name="period">
          -353 79 61 vstem
          56 hmoveto
          -38 callsubr
          endchar
        </CharString>
        <CharString name="periodcentered">
          -351 254 145 hstemhm
          83 125 -71 63 hintmask 11000000
          114 254 rmoveto
          63 hlineto
          hintmask 10100000
          23 105 rlineto
          -63 hlineto
          endchar
        </CharString>
        <CharString name="periodcentered.cap">
          -351 287 145 hstemhm
          90 125 -70 62 hintmask 11000000
          122 287 rmoveto
          62 hlineto
          hintmask 10100000
          23 104 -52 callgsubr
          endchar
        </CharString>
        <CharString name="perthousand">
          287 294 657 rmoveto
          -41 -23 -30 -62 -15 hvcurveto
          -63 -16 7 -34 41 hhcurveto
          42 23 34 62 16 hvcurveto
          63 15 -7 30 -42 hhcurveto
          -135 -652 rmoveto
          43 -10 361 699 -43 12 rlineto
          -356 -141 rmoveto
          95 24 51 41 66 hhcurveto
          65 32 -41 -96 -24 hvcurveto
          -96 -24 -54 -44 -64 hhcurveto
          -65 -31 44 97 24 hvcurveto
          176 -424 rmoveto
          -97 -24 32 -44 65 hhcurveto
          64 54 44 96 24 hvcurveto
          96 24 -33 41 -65 hhcurveto
          -65 -52 -41 -95 -24 hvcurveto
          51 hmoveto
          61 16 22 31 41 hhcurveto
          42 8 -31 -62 -16 hvcurveto
          -63 -16 -23 -33 -42 hhcurveto
          -41 -7 33 64 16 hvcurveto
          207 hmoveto
          -66 callgsubr
        </CharString>
        <CharString name="pi">
          35 -3 53 397 53 15 -20 hstemhm
          169 61 203 59 hintmask 10111000
          433 154 rmoveto
          -127 30 -30 121 vhcurveto
          53 vlineto
          -72 -20 18 86 hvcurveto
          295 vlineto
          73 2 29 12 0 vvcurveto
          52 vlineto
          hintmask 11011000
          0 -59 -15 -77 vhcurveto
          -231 hlineto
          -82 -58 -14 0 hvcurveto
          -52 vlineto
          0 40 12 73 1 vhcurveto
          -31 -447 -30 callgsubr
          28 447 rlineto
          175 hlineto
          endchar
        </CharString>
        <CharString name="plus">
          35 223 56 hstemhm
          114 447 -253 57 hintmask 11000000
          114 223 rmoveto
          hintmask 10100000
          194 -203 57 203 hlineto
          hintmask 11000000
          196 56 hlineto
          hintmask 10100000
          -196 201 -57 -201 hlineto
          hintmask 11000000
          -194 hlineto
          endchar
        </CharString>
        <CharString name="plusminus">
          35 42 56 200 56 hstem
          297 57 vstem
          103 298 rmoveto
          194 -133 57 133 196 56 -196 130 -57 -130 -194 hlineto
          -256 vmoveto
          -56 447 56 vlineto
          endchar
        </CharString>
        <CharString name="product">
          35 -137 -21 855 55 hstem
          207 62 229 61 vstem
          498 -158 rmoveto
          61 855 75 55 -500 -55 73 -855 62 855 229 hlineto
          endchar
        </CharString>
        <CharString name="q">
          -34 -197 -21 208 53 -32 -21 467 52 hstemhm
          90 62 161 59 hintmask 10111100
          216 -10 rmoveto
          90 80 108 0 hvcurveto
          -73 -316 rlineto
          59 hlineto
          163 704 rlineto
          0 -123 23 -73 -159 -90 -215 -164 -87 41 -53 85 vhcurveto
          123 467 rmoveto
          61 65 -15 0 hvcurveto
          -62 -270 rlineto
          hintmask 11011100
          0 -99 -129 -71 -58 -23 32 58 133 68 191 119 vhcurveto
          endchar
        </CharString>
        <CharString name="question">
          -115 22 -21 339 43 266 56 0 0 hstemhm
          -177 32 201 38 21 122 -69 62 -45 57 -50 58 185 64 hintmask 1110111000100000
          499 580 rmoveto
          90 -68 35 -92 -65 -88 -25 0 vhcurveto
          -3 -50 rlineto
          0 86 19 58 66 42 -18 -54 -76 -34 -33 -106 -85 vhcurveto
          hintmask 1101110001100000
          -61 -47 -33 -42 -9 -46 rrcurveto
          hintmask 1101110010100000
          -5 -26 -2 -29 0 vvcurveto
          57 hlineto
          hintmask 1101110001100000
          8 39 7 33 25 35 50 40 rlinecurve
          129 102 38 37 101 vvcurveto
          -353 -579 rmoveto
          61 hlineto
          hintmask 1101110100100000
          23 103 -52 callgsubr
          endchar
        </CharString>
        <CharString name="questiondown">
          -124 -204 31 callsubr
          23 -13 callgsubr
          23 -79 -84 callsubr
        </CharString>
        <CharString name="questiondown.cap">
          -129 -5 31 callsubr
          65 -13 callgsubr
          65 120 -84 callsubr
        </CharString>
        <CharString name="quotedbl">
          -211 480 -21 36 -21 221 -20 hstemhm
          207 54 -45 57 -15 57 -46 54 -3 57 -46 55 hintmask 0111001010000000
          hintmask 1010100100000000
          323 474 rmoveto
          8 callsubr
          hintmask 1010010010000000
          -8 hmoveto
          8 callsubr
          endchar
        </CharString>
        <CharString name="quotedblbase">
          -206 -127 -20 256 -21 hstem
          -27 61 91 61 vstem
          243 88 21 callgsubr
          -198 hmoveto
          -43 callgsubr
          endchar
        </CharString>
        <CharString name="quotedblleft">
          -193 480 -20 256 -21 hstem
          137 61 90 61 vstem
          255 695 21 callgsubr
          105 hmoveto
          -43 callgsubr
          endchar
        </CharString>
        <CharString name="quotedblright">
          -193 501 -21 215 -20 hstem
          257 61 89 -6 callgsubr
          196 hmoveto
          14 callgsubr
        </CharString>
        <CharString name="quoteleft">
          -343 479 -20 256 -21 hstem
          138 61 vstem
          256 694 21 callgsubr
          endchar
        </CharString>
        <CharString name="quoteright">
          -343 501 -21 215 -20 hstem
          257 -6 callgsubr
          endchar
        </CharString>
        <CharString name="quotesinglbase">
          -347 -106 -21 215 -20 hstem
          101 61 vstem
          44 -127 rmoveto
          14 callgsubr
        </CharString>
        <CharString name="quotesingle">
          -357 495 -21 221 -20 hstemhm
          165 54 -3 57 hintmask 11100000
          hintmask 11010000
          219 474 rmoveto
          54 221 rlineto
          hintmask 11100000
          -57 hlineto
          -51 -221 rlineto
          endchar
        </CharString>
        <CharString name="r">
          -5 callgsubr
          hstem
          68 61 vstem
          -83 callgsubr
          endchar
        </CharString>
        <CharString name="racute">
          -5 callgsubr
          105 -21 hstem
          68 61 vstem
          -83 callgsubr
          20 101 -91 callgsubr
        </CharString>
        <CharString name="radical">
          35 -138 53 532 -20 hstem
          117 392 rmoveto
          61 hlineto
          142 -530 rlineto
          98 hlineto
          261 912 -52 callgsubr
          -242 -859 rlineto
          -9 hlineto
          -137 532 rlineto
          -112 hlineto
          endchar
        </CharString>
        <CharString name="rcaron">
          -5 callgsubr
          101 -37 callsubr
          hstem
          68 61 65 25 callgsubr
          vstem
          -83 callgsubr
          126 90 -15 callsubr
        </CharString>
        <CharString name="rcommaaccent">
          -5 callgsubr
          hstemhm
          60 56 -48 61 hintmask 11010000
          -83 callgsubr
          hintmask 11100000
          -125 -573 -75 callgsubr
          endchar
        </CharString>
        <CharString name="registered">
          120 164 39 191 41 107 41 82 39 hstem
          162 40 114 47 122 48 111 39 vstem
          -71 callgsubr
          -126 -94 104 127 vhcurveto
          284 -151 rmoveto
          52 hlineto
          -59 117 rlineto
          40 14 14 28 48 vvcurveto
          70 -40 23 -74 vhcurveto
          -103 -300 48 111 68 hlineto
          -69 148 rmoveto
          54 hlineto
          46 22 -14 -39 -40 -16 -14 -39 hvcurveto
          -67 hlineto
          endchar
        </CharString>
        <CharString name="ring">
          266 549 41 106 49 hstem
          315 39 101 40 vstem
          315 644 -95 callsubr
          endchar
        </CharString>
        <CharString name="ring.cap">
          -216 434 792 -67 callsubr
          endchar
        </CharString>
        <CharString name="s">
          -35 callsubr
          hstemhm
          127 60 174 61 hintmask 11101100
          24 callgsubr
          hintmask 11011100
          -102 callgsubr
          hintmask 11101100
          -3 callgsubr
          endchar
        </CharString>
        <CharString name="sacute">
          -35 callsubr
          106 -21 hstemhm
          127 60 174 61 hintmask 11101110
          24 callgsubr
          hintmask 11011110
          -102 callgsubr
          hintmask 11101110
          -3 callgsubr
          -188 158 -91 callgsubr
        </CharString>
        <CharString name="scaron">
          -35 callsubr
          102 -37 callsubr
          hstemhm
          127 60 66 112 -4 61 -52 156 hintmask 1110111010000000
          24 callgsubr
          hintmask 1101111010000000
          -102 callgsubr
          hintmask 1110111101000000
          -3 callgsubr
          -100 147 -15 callsubr
        </CharString>
        <CharString name="scedilla">
          -97 -12 callsubr
          38 53 -38 -20 244 29 callsubr
          -1 37 19 52 67 61 hintmask 1101110011100000
          293 -124 rmoveto
          -51 callsubr
          hintmask 1110110011100000
          10 38 rlineto
          113 4 90 59 117 vvcurveto
          73 -48 17 -89 21 vhcurveto
          hintmask 1101101101100000
          -78 19 -20 12 36 vvcurveto
          58 49 51 77 vhcurveto
          hintmask 1101110011100000
          -3 callgsubr
          13 48 rlineto
          hintmask 1101101011100000
          0 -88 18 -74 vhcurveto
          hintmask 1101110101100000
          -113 -81 -73 -101 -66 46 -20 84 -20 hvcurveto
          75 -17 29 -9 -45 vvcurveto
          hintmask 1110110011100000
          -79 -65 -36 -82 -59 -92 16 0 vhcurveto
          -11 -48 rlineto
          0 65 -17 65 -3 vhcurveto
          -18 -77 -99 callgsubr
          endchar
        </CharString>
        <CharString name="scircumflex">
          -35 callsubr
          102 -37 callsubr
          hstemhm
          127 60 34 62 78 61 -42 110 hintmask 1110111110000000
          24 callgsubr
          hintmask 1101111110000000
          -102 callgsubr
          hintmask 1110111101000000
          -3 callgsubr
          -249 147 rmoveto
          62 hlineto
          -89 callsubr
        </CharString>
        <CharString name="scommaaccent">
          -98 -10 53 186 29 callsubr
          -10 56 128 61 hintmask 11101010
          482 491 rmoveto
          hintmask 11011010
          -102 callgsubr
          hintmask 11100110
          -3 callgsubr
          -293 -516 -75 callgsubr
          endchar
        </CharString>
        <CharString name="section">
          -59 -139 56 680 56 hstem
          174 63 177 61 vstem
          541 638 rmoveto
          0 -88 15 -60 -145 -74 -100 -91 -34 5 -21 15 -18 vhcurveto
          -9 -7 -76 -70 -82 vvcurveto
          -56 31 -39 101 -17 vhcurveto
          92 -17 21 -12 -42 vvcurveto
          -55 -51 -75 -95 -51 -102 14 0 vhcurveto
          -17 -54 rlineto
          0 100 -16 59 178 41 150 53 23 -2 15 -15 20 vhcurveto
          8 10 68 84 72 vvcurveto
          46 -28 43 -99 18 vhcurveto
          -74 13 -37 9 54 vvcurveto
          74 49 52 96 45 99 -14 0 vhcurveto
          -210 -242 rmoveto
          72 -13 26 -20 -35 vvcurveto
          -48 -52 -74 -3 -3 vhcurveto
          -23 13 -30 7 -38 7 rrcurveto
          -75 13 -22 20 40 vvcurveto
          51 57 63 3 3 vhcurveto
          8 -7 39 -11 38 -6 rrcurveto
          endchar
        </CharString>
        <CharString name="semicolon">
          -318 -108 -21 229 -20 hstemhm
          154 60 -37 61 hintmask 11100000
          10 -129 rmoveto
          94 229 rlineto
          66 hlineto
          -111 -229 rlineto
          95 467 rmoveto
          61 hlineto
          hintmask 11010000
          23 100 -14 callsubr
          endchar
        </CharString>
        <CharString name="seven">
          35 605 55 hstem
          545 60 vstem
          221 605 rmoveto
          332 hlineto
          -8 -36 -391 -561 55 -19 396 571 23 100 rlineto
          -394 hlineto
          endchar
        </CharString>
        <CharString name="seven.dnom">
          -88 25 callsubr
          210 62 vstem
          75 160 -76 callgsubr
        </CharString>
        <CharString name="seven.numr">
          390 25 callsubr
          321 62 vstem
          186 638 -76 callgsubr
        </CharString>
        <CharString name="seven.pnum">
          -131 7 -21 460 55 hstem
          129 446 rmoveto
          275 hlineto
          -6 -22 -306 -409 49 -29 321 433 20 82 rlineto
          -339 hlineto
          endchar
        </CharString>
        <CharString name="seveninferior">
          -88 25 callsubr
          210 62 vstem
          75 160 -76 callgsubr
        </CharString>
        <CharString name="sevensuperior">
          490 25 callsubr
          338 62 vstem
          203 738 -76 callgsubr
        </CharString>
        <CharString name="six">
          35 -10 54 0 -20 332 55 205 54 hstem
          115 63 325 63 vstem
          631 651 rmoveto
          0 -83 19 -78 -247 -108 -273 -182 -146 67 -79 119 168 97 108 157 95 -55 61 -120 -95 -96 -45 0 vhcurveto
          110 32 72 140 151 hhcurveto
          77 81 -16 0 hvcurveto
          -240 -244 rmoveto
          94 36 -38 -77 -108 -66 -89 -135 -85 -39 67 103 37 5 44 6 18 hvcurveto
          0 97 43 87 vhcurveto
          endchar
        </CharString>
        <CharString name="six.dnom">
          -110 -13 callsubr
          40 52 103 55 vstem
          288 212 -102 callsubr
        </CharString>
        <CharString name="six.numr">
          368 -13 callsubr
          150 52 103 55 vstem
          398 690 -102 callsubr
        </CharString>
        <CharString name="six.pnum">
          -50 -10 50 274 -20 161 54 hstem
          89 60 268 61 vstem
          527 491 rmoveto
          0 -83 18 -66 -196 -93 -180 -194 -86 42 -59 105 185 57 118 96 68 -30 42 -117 -54 -80 -25 -14 -27 vhcurveto
          128 33 74 52 92 hhcurveto
          68 72 -14 0 hvcurveto
          -195 -178 rmoveto
          88 15 -29 -37 -32 -14 -125 -153 -81 -20 46 57 24 5 37 4 20 hvcurveto
          0 88 39 68 vhcurveto
          endchar
        </CharString>
        <CharString name="sixinferior">
          -110 -13 callsubr
          41 52 103 55 vstem
          289 212 -102 callsubr
        </CharString>
        <CharString name="sixsuperior">
          468 -13 callsubr
          176 52 103 55 vstem
          424 790 -102 callsubr
        </CharString>
        <CharString name="slash">
          -119 14 -21 711 -20 hstem
          43 56 370 57 vstem
          99 -7 -40 callgsubr
          endchar
        </CharString>
        <CharString name="space">
          -305 endchar
        </CharString>
        <CharString name="sterling">
          35 603 664 rmoveto
          0 -78 15 -54 -123 -33 -79 -129 -31 vhcurveto
          -12 -56 rlineto
          -74 hlineto
          -13 -53 rlineto
          74 hlineto
          -70 -309 rlineto
          -96 hlineto
          -12 -53 rlineto
          317 hlineto
          80 18 rlineto
          52 vlineto
          -77 -17 rlineto
          -150 hlineto
          69 309 rlineto
          204 hlineto
          12 53 rlineto
          -203 hlineto
          12 49 rlineto
          95 23 15 66 84 hhcurveto
          52 71 -8 0 hvcurveto
          endchar
        </CharString>
        <CharString name="summation">
          35 -158 55 799 56 hstem
          390 310 rmoveto
          -274 -377 rlineto
          -91 463 55 -399 28 vlineto
          267 361 rlineto
          46 vlineto
          -267 340 rlineto
          24 399 56 -463 -90 vlineto
          endchar
        </CharString>
        <CharString name="t">
          22 callgsubr
          402 447 -91 callsubr
          endchar
        </CharString>
        <CharString name="tbar">
          -205 -10 53 225 53 126 53 153 -20 hstem
          405 447 rmoveto
          13 53 rlineto
          -149 hlineto
          38 153 8 callgsubr
          -37 -153 rlineto
          -68 hlineto
          -13 -53 rlineto
          68 hlineto
          -30 -126 rlineto
          -55 hlineto
          -12 -53 rlineto
          55 hlineto
          -19 -82 rlineto
          -8 -32 -9 -39 -33 vvcurveto
          -59 37 -33 63 42 52 12 0 vhcurveto
          4 47 rlineto
          0 -54 -6 -26 -39 -16 20 31 24 6 35 7 30 vhcurveto
          20 85 rlineto
          143 hlineto
          13 53 rlineto
          -144 hlineto
          30 126 rlineto
          endchar
        </CharString>
        <CharString name="tcaron">
          -138 -10 53 404 53 -12 -21 186 -20 62 -20 hstemhm
          498 55 hintmask 10111100
          553 0 callgsubr
          55 hlineto
          hintmask 11011100
          -98 -20 -91 callsubr
          endchar
        </CharString>
        <CharString name="tcedilla">
          -210 -12 callsubr
          38 53 -41 -20 465 53 153 -20 hstemhm
          179 37 22 52 hintmask 11101111
          290 -124 rmoveto
          -51 callsubr
          10 38 rlineto
          1 hlineto
          hintmask 11011111
          42 52 12 0 hvcurveto
          4 47 rlineto
          hintmask 11101111
          0 -54 -6 -26 -39 -16 20 31 24 6 35 7 30 vhcurveto
          62 264 rlineto
          148 hlineto
          13 53 rlineto
          -149 hlineto
          38 153 8 callgsubr
          -37 -153 rlineto
          -68 hlineto
          -13 -53 rlineto
          68 hlineto
          -61 -261 rlineto
          -8 -32 -9 -39 -33 vvcurveto
          -47 23 -30 40 -10 vhcurveto
          -19 -81 -99 callgsubr
          endchar
        </CharString>
        <CharString name="tcommaaccent">
          22 callgsubr
          148 56 vstem
          402 447 -91 callsubr
          -106 -520 -75 callgsubr
          endchar
        </CharString>
        <CharString name="thorn">
          -45 -202 -21 213 57 405 57 211 -20 hstem
          238 57 139 58 vstem
          382 509 rmoveto
          -70 -72 -55 -8 -11 hvcurveto
          66 274 rlineto
          -57 hlineto
          -223 -943 -9 callsubr
          53 223 rlineto
          -2 54 -8 50 142 73 86 183 49 vhcurveto
          100 28 0 150 -138 hhcurveto
          -168 -125 rmoveto
          -2 80 70 71 92 -3 -122 -71 -20 vhcurveto
          -141 -39 -50 -71 -107 hhcurveto
          -101 10 rlineto
          endchar
        </CharString>
        <CharString name="three">
          35 -10 54 274 52 187 -21 80 54 hstemhm
          473 62 -6 63 hintmask 11110100
          217 596 rmoveto
          0 100 20 91 84 37 -28 -66 -90 -99 -62 -67 vhcurveto
          -130 -2 -13 -50 rlineto
          130 hlineto
          hintmask 11111000
          88 -1 35 -41 -63 vvcurveto
          -104 -91 -65 -108 -79 -106 27 0 vhcurveto
          -14 -47 rlineto
          0 99 -34 95 149 117 85 142 78 -33 35 -50 21 vhcurveto
          hintmask 11110100
          79 30 61 59 96 vvcurveto
          88 -54 46 -120 -98 -97 -27 12 callgsubr
        </CharString>
        <CharString name="three.dnom">
          -110 5 callsubr
          187 55 vstem
          87 211 -104 callsubr
          endchar
        </CharString>
        <CharString name="three.numr">
          368 5 callsubr
          300 55 vstem
          200 689 -104 callsubr
          endchar
        </CharString>
        <CharString name="three.pnum">
          -67 -9 56 188 54 164 56 hstemhm
          390 62 -18 63 hintmask 11101000
          169 489 rmoveto
          -7 -53 rlineto
          0 99 17 76 71 26 -11 -43 -72 -70 -38 -59 vhcurveto
          -122 hlineto
          -14 -54 rlineto
          121 hlineto
          hintmask 11110000
          38 62 -8 -57 -62 -42 -61 -109 -77 -99 16 0 hvcurveto
          -21 -53 rlineto
          0 106 -19 85 160 59 96 93 44 -35 33 -46 8 vhcurveto
          hintmask 11101000
          36 3 90 35 117 vvcurveto
          51 -38 38 -109 -77 -104 -20 12 callgsubr
        </CharString>
        <CharString name="threeinferior">
          -110 5 callsubr
          186 55 vstem
          86 211 -104 callsubr
          endchar
        </CharString>
        <CharString name="threequarters">
          78 14 -21 28 -17 callsubr
          176 50 96 47 43 -20 66 49 hstemhm
          130 56 136 55 120 53 6 57 hintmask 1011111111110000
          222 789 -104 callsubr
          -36 -796 -40 callgsubr
          hintmask 0111111111110000
          367 -14 -100 callsubr
        </CharString>
        <CharString name="threesuperior">
          468 5 callsubr
          322 55 vstem
          222 789 -104 callsubr
          endchar
        </CharString>
        <CharString name="tilde">
          -103 620 -15 callgsubr
          hintmask 10000000
          517 714 -56 callsubr
          hintmask 01000000
          -96 callgsubr
          hintmask 10000000
          -83 callsubr
          endchar
        </CharString>
        <CharString name="tilde.cap">
          -98 586 917 -92 callsubr
          endchar
        </CharString>
        <CharString name="trademark">
          177 352 -21 22 -21 252 43 hstemhm
          301 46 105 45 187 44 hintmask 01111100
          220 584 rmoveto
          81 -252 46 252 73 43 -200 hlineto
          hintmask 10111100
          232 -296 rmoveto
          45 237 hlineto
          72 -224 rlineto
          40 hlineto
          75 224 rlineto
          -237 44 296 -63 vlineto
          -76 -221 -73 221 rlineto
          -64 hlineto
          endchar
        </CharString>
        <CharString name="two">
          35 0 54 563 54 hstem
          537 62 vstem
          490 hmoveto
          13 54 rlineto
          -345 hlineto
          256 206 rlineto
          102 81 83 79 107 vvcurveto
          99 -64 45 -121 -90 -101 -28 0 vhcurveto
          -6 -49 rlineto
          0 109 23 78 86 47 -26 -72 -80 -79 -73 -108 -90 vhcurveto
          -270 -226 -12 -50 rlineto
          endchar
        </CharString>
        <CharString name="two.dnom">
          -100 26 callsubr
          215 56 vstem
          218 -100 -101 callsubr
        </CharString>
        <CharString name="two.numr">
          378 26 callsubr
          322 56 vstem
          325 378 -101 callsubr
        </CharString>
        <CharString name="two.pnum">
          -81 21 -21 452 57 hstem
          416 68 vstem
          409 hmoveto
          8 56 rlineto
          -272 hlineto
          195 137 rlineto
          73 51 71 61 101 vvcurveto
          58 -41 45 -102 -76 -107 -22 0 vhcurveto
          -9 -54 rlineto
          1 1 104 18 61 hhcurveto
          84 17 -27 -37 -65 -79 -66 -77 -53 hvcurveto
          -210 -149 -13 -55 rlineto
          endchar
        </CharString>
        <CharString name="twoinferior">
          -100 26 callsubr
          213 56 vstem
          216 -100 -101 callsubr
        </CharString>
        <CharString name="twosuperior">
          478 26 callsubr
          344 56 vstem
          347 478 -101 callsubr
        </CharString>
        <CharString name="u">
          -39 callsubr
          6 callsubr
          hintmask 10111000
          481 500 rmoveto
          -22 callgsubr
          -98 callgsubr
          hintmask 01111000
          -79 callgsubr
          hintmask 10111000
          -80 callsubr
          endchar
        </CharString>
        <CharString name="uacute">
          -39 callsubr
          135 -21 6 callsubr
          hintmask 10111100
          481 500 rmoveto
          -22 callgsubr
          -98 callgsubr
          hintmask 01111100
          -79 callgsubr
          hintmask 10111100
          -80 callsubr
          -222 101 -91 callgsubr
        </CharString>
        <CharString name="ubreve">
          -39 callsubr
          114 49 hstemhm
          100 61 107 51 48 58 66 52 hintmask 10111111
          481 500 rmoveto
          -22 callgsubr
          -98 callgsubr
          hintmask 01111111
          -79 callgsubr
          hintmask 10111111
          -80 callsubr
          -273 227 -38 callgsubr
          -90 callsubr
        </CharString>
        <CharString name="ucircumflex">
          -31 65 -21 204 434 -92 -20 hstemhm
          180 59 165 40 hintmask 10111000
          225 590 rmoveto
          68 hlineto
          hintmask 11011000
          97 92 rlineto
          hintmask 10111000
          54 -92 -30 callgsubr
          -87 -2 callsubr
          -41 hlineto
          104 -235 rmoveto
          -22 callgsubr
          -74 callgsubr
          vhcurveto
          hintmask 11011000
          -37 callgsubr
          vhcurveto
          -47 callgsubr
        </CharString>
        <CharString name="udieresis">
          -31 123 584 -518 -21 457 -20 hstemhm
          161 19 95 206 hintmask 01111000
          256 625 11 callsubr
          hintmask 10011000
          19 1 callgsubr
          hintmask 01111000
          -17 callgsubr
          hintmask 10011000
          -3 callsubr
          hintmask 01111000
          21 -207 -73 callgsubr
        </CharString>
        <CharString name="ugrave">
          -31 244 443 -166 -21 140 -20 hstemhm
          100 20 60 106 hintmask 01111000
          hintmask 10011000
          286 734 rmoveto
          hintmask 01111000
          -29 -47 177 -88 28 41 rlineto
          19 -140 rmoveto
          -22 callgsubr
          -74 callgsubr
          -37 callgsubr
          vhcurveto
          59 252 -54 callsubr
          hintmask 10011000
          -16 callsubr
          -9 -38 -11 -51 -43 vvcurveto
          -79 callgsubr
          -21 -97 rlineto
          58 hlineto
          hintmask 01111000
          116 500 rlineto
          endchar
        </CharString>
        <CharString name="uhungarumlaut">
          -31 123 624 -558 -21 418 -20 hstemhm
          161 19 253 48 hintmask 01111000
          461 586 rmoveto
          176 125 rlineto
          hintmask 10011000
          -32 36 -172 -126 rlineto
          hintmask 01111000
          -151 -35 rmoveto
          175 125 rlineto
          hintmask 10011000
          -31 36 -172 -126 rlineto
          hintmask 01111000
          227 -121 -73 callgsubr
        </CharString>
        <CharString name="umacron">
          -39 callsubr
          153 56 6 callsubr
          hintmask 10111100
          481 500 rmoveto
          -22 callgsubr
          -98 callgsubr
          hintmask 01111100
          -79 callgsubr
          hintmask 10111100
          -80 callsubr
          -293 142 -62 callgsubr
        </CharString>
        <CharString name="underscore">
          77 -139 60 hstem
          58 -79 rmoveto
          -13 -60 rlineto
          447 hlineto
          15 60 rlineto
          endchar
        </CharString>
        <CharString name="uni00A0">
          -305 endchar
        </CharString>
        <CharString name="uni1EAB">
          -32 -50 callgsubr
          71 -37 callsubr
          50 -15 callgsubr
          91 62 103 17 callsubr
          hintmask 1111101110000000
          216 -10 -107 callgsubr
          243 372 -56 callsubr
          hintmask 1111011110000000
          -96 callgsubr
          hintmask 1111101110000000
          -83 callsubr
          -334 -223 rmoveto
          62 hlineto
          -89 callsubr
        </CharString>
        <CharString name="uni1EB0">
          12 callsubr
          377 -313 48 192 -21 hstemhm
          27 62 263 53 184 28 hintmask 0110111110000000
          hintmask 0111001110000000
          441 1072 -65 callsubr
          -590 -978 -1 callgsubr
          hintmask 1000111110000000
          -23 -24 callsubr
          -126 hlineto
          -86 callsubr
          137 637 rmoveto
          hintmask 1001001110000000
          -93 callgsubr
          endchar
        </CharString>
        <CharString name="uni1EC5">
          -65 callgsubr
          72 -37 callsubr
          50 -15 callgsubr
          93 61 87 62 56 3 38 110 -67 60 hintmask 1111110111010000
          568 829 -56 callsubr
          hintmask 1111101111010000
          -96 callgsubr
          hintmask 1111110111010000
          -83 callsubr
          -316 -739 -106 callgsubr
          7 275 rmoveto
          62 hlineto
          hintmask 1111110111100000
          -89 callsubr
        </CharString>
        <CharString name="uni1ED7">
          -43 callsubr
          72 -37 callsubr
          50 -15 callgsubr
          94 164 -18 17 callsubr
          -57 61 hintmask 1111101001000000
          345 509 rmoveto
          -105 callgsubr
          317 786 -56 callsubr
          hintmask 1111011001000000
          -96 callgsubr
          hintmask 1111100110000000
          -83 callsubr
          -339 -223 rmoveto
          62 hlineto
          -89 callsubr
        </CharString>
        <CharString name="uni1EF8">
          -35 21 -21 818 -15 callgsubr
          173 62 -24 59 299 66 hintmask 11001100
          584 912 -56 callsubr
          hintmask 10101100
          -96 callgsubr
          hintmask 11010100
          -83 callsubr
          47 -171 -81 callgsubr
          rlineto
          hintmask 11001100
          -63 callsubr
        </CharString>
        <CharString name="uni1EF9">
          -29 callsubr
          140 -15 callgsubr
          159 42 hintmask 11110100
          524 714 -56 callsubr
          hintmask 11101100
          -96 callgsubr
          hintmask 11110100
          -83 callsubr
          -386 -168 -95 callgsubr
          endchar
        </CharString>
        <CharString name="uogonek">
          -31 -202 54 148 44 -33 -21 21 -20 509 -20 hstemhm
          100 61 100 66 41 57 hintmask 10011111
          481 500 rmoveto
          -22 callgsubr
          hintmask 11001111
          -98 callgsubr
          hintmask 10101111
          -79 callgsubr
          -20 -90 rlineto
          -36 -29 -71 -68 -52 -72 callgsubr
          vhcurveto
          hintmask 11001111
          39 66 63 32 24 vhcurveto
          116 500 rlineto
          endchar
        </CharString>
        <CharString name="uring">
          -39 callsubr
          69 41 106 49 hstemhm
          100 61 135 39 32 58 11 40 hintmask 1011111110000000
          296 644 -95 callsubr
          146 -144 rmoveto
          -22 callgsubr
          -98 callgsubr
          hintmask 0111111110000000
          -79 callgsubr
          hintmask 1011111110000000
          -80 callsubr
          endchar
        </CharString>
        <CharString name="utilde">
          -39 callsubr
          140 53 -4 53 6 callsubr
          hintmask 10110110
          537 714 -56 callsubr
          hintmask 10101110
          -96 callgsubr
          hintmask 10110110
          -83 callsubr
          -60 -168 rmoveto
          -22 callgsubr
          -98 callgsubr
          hintmask 01110110
          -79 callgsubr
          hintmask 10110110
          -80 callsubr
          endchar
        </CharString>
        <CharString name="v">
          -73 0 52 448 -20 hstem
          142 17 123 259 vstem
          142 500 rmoveto
          17 -500 rlineto
          123 hlineto
          259 500 rlineto
          -63 hlineto
          -228 -448 rlineto
          -35 hlineto
          -14 448 rlineto
          endchar
        </CharString>
        <CharString name="w">
          -4 callgsubr
          hstem
          146 107 210 343 vstem
          146 500 -57 callsubr
          -94 callsubr
          endchar
        </CharString>
        <CharString name="wacute">
          -4 callgsubr
          135 -21 hstem
          146 107 210 343 vstem
          146 500 -57 callsubr
          -94 callsubr
          201 101 -91 callgsubr
        </CharString>
        <CharString name="wcircumflex">
          -4 callgsubr
          131 -37 callsubr
          hstemhm
          146 107 95 62 53 343 -299 110 hintmask 11111110
          146 500 -57 callsubr
          -94 callsubr
          142 90 rmoveto
          62 hlineto
          hintmask 11111101
          -89 callsubr
        </CharString>
        <CharString name="wdieresis">
          -4 callgsubr
          147 80 hstemhm
          146 107 118 55 37 343 -249 53 hintmask 11111010
          146 500 -57 callsubr
          rlineto
          hintmask 11111100
          -94 callsubr
          171 125 -53 callsubr
        </CharString>
        <CharString name="wgrave">
          198 0 0 640 -20 hstem
          146 107 99 205 vstem
          381 20 callgsubr
          -411 -140 -57 callsubr
          -94 callsubr
          endchar
        </CharString>
        <CharString name="x">
          -109 140 500 rmoveto
          90 -250 -208 -250 rlineto
          67 hlineto
          166 204 72 -204 rlineto
          63 hlineto
          -90 245 211 255 rlineto
          -66 hlineto
          -169 -209 -74 209 rlineto
          endchar
        </CharString>
        <CharString name="y">
          -29 callsubr
          hstem
          159 42 -48 callsubr
          endchar
        </CharString>
        <CharString name="yacute">
          -29 callsubr
          135 -21 hstem
          159 42 -48 callsubr
          92 101 -91 callgsubr
        </CharString>
        <CharString name="ycircumflex">
          -29 callsubr
          131 -37 callsubr
          hstem
          159 42 23 17 callsubr
          -48 callsubr
          23 90 rmoveto
          62 hlineto
          -89 callsubr
        </CharString>
        <CharString name="ydieresis">
          -73 625 -20 102 -20 41 -21 hstem
          159 132 vstem
          235 625 -11 callsubr
          -297 -207 -95 callgsubr
          endchar
        </CharString>
        <CharString name="yen">
          35 21 -21 168 55 95 54 289 -20 hstem
          142 318 rmoveto
          172 hlineto
          4 -16 -18 -79 rlineto
          -180 hlineto
          -13 -55 rlineto
          181 hlineto
          -39 -168 rlineto
          60 hlineto
          40 168 rlineto
          177 -73 callsubr
          -177 hlineto
          18 77 15 18 rlineto
          166 hlineto
          12 54 rlineto
          -135 hlineto
          245 289 rlineto
          -79 hlineto
          -244 -291 -116 291 rlineto
          -66 hlineto
          115 -289 rlineto
          -139 hlineto
          endchar
        </CharString>
        <CharString name="ygrave">
          -73 -224 -20 884 -20 135 -21 hstem
          399 142 vstem
          251 20 callgsubr
          -285 -140 -95 callgsubr
          endchar
        </CharString>
        <CharString name="z">
          5 callgsubr
          hstem
          141 447 -42 callsubr
        </CharString>
        <CharString name="zacute">
          5 callgsubr
          115 -21 -45 callsubr
          122 154 -91 callgsubr
        </CharString>
        <CharString name="zcaron">
          5 callgsubr
          111 -37 callsubr
          hstem
          233 25 callgsubr
          vstem
          350 590 -78 callgsubr
          -177 -143 -42 callsubr
        </CharString>
        <CharString name="zdotaccent">
          5 callgsubr
          -45 callsubr
          172 163 -36 callsubr
        </CharString>
        <CharString name="zero">
          35 -10 54 -33 -21 626 54 hstem
          103 62 381 63 vstem
          412 670 rmoveto
          -202 -107 -265 -228 -122 69 -65 125 197 115 247 242 125 -67 66 -130 hvcurveto
          -1 -54 rmoveto
          90 45 -49 -93 -187 -85 -243 -164 -83 -49 44 96 169 79 263 167 hvcurveto
          endchar
        </CharString>
        <CharString name="zero.dnom">
          -110 27 callgsubr
          38 28 callgsubr
          195 221 -100 callgsubr
        </CharString>
        <CharString name="zero.numr">
          368 27 callgsubr
          145 28 callgsubr
          302 699 -100 callgsubr
        </CharString>
        <CharString name="zero.pnum">
          -8 -9 56 406 56 hstem
          89 64 326 65 vstem
          378 509 rmoveto
          -56 -49 -15 -29 -42 hvcurveto
          -91 -64 -51 -125 -122 vvcurveto
          -104 44 -59 116 73 59 23 39 44 vhcurveto
          85 75 34 128 89 vvcurveto
          104 -43 60 -123 vhcurveto
          -12 -56 rmoveto
          85 28 -37 -84 -56 -41 -229 -174 -79 -32 36 79 147 84 144 129 hvcurveto
          endchar
        </CharString>
        <CharString name="zero.slash">
          35 -96 -21 107 57 -36 -21 623 57 128 -20 hstem
          34 42 25 65 380 65 5 44 vstem
          415 670 rmoveto
          -205 -109 -253 -230 -53 12 -43 24 -32 hvcurveto
          -103 -160 42 -16 93 144 rlineto
          -24 32 42 -13 50 hhcurveto
          216 102 253 228 67 -19 51 -35 33 hvcurveto
          103 159 -44 17 -97 -149 rlineto
          14 -28 -35 7 -41 hhcurveto
          131 -205 rmoveto
          -186 -81 -232 -168 -38 -32 11 23 -22 vhcurveto
          314 483 rlineto
          17 -24 10 -34 -41 vvcurveto
          -135 148 rmoveto
          29 25 -6 -12 20 hvcurveto
          -307 -473 rlineto
          -8 19 -4 24 27 vvcurveto
          181 73 240 172 vhcurveto
          endchar
        </CharString>
        <CharString name="zeroinferior">
          -10 27 callgsubr
          60 28 callgsubr
          217 321 -100 callgsubr
        </CharString>
        <CharString name="zerosuperior">
          468 27 callgsubr
          169 28 callgsubr
          326 799 -100 callgsubr
        </CharString>
      <CharString index="0">
        rmoveto
        89 88 123 0 hvcurveto
        -4 -21 -15 -93 0 vvcurveto
        58 2 rlineto
        -61 callsubr
        76 325 rlineto
        0 -133 24 -61 -165 -86 -218 -161 -88 39 -53 86 vhcurveto
        127 467 rmoveto
        52 72 -15 0 hvcurveto
        -61 -258 rlineto
        0 -104 -141 -69 -60 -20 32 56 133 65 193 125 vhcurveto
        return
      </CharString>
      <CharString index="1">
        rmoveto
        -75 callsubr
        hvcurveto
        56 hlineto
        -55 callgsubr
        -16 callgsubr
        -186 -83 -201 -170 -99 56 -49 91 89 87 30 0 hvcurveto
        4 49 rlineto
        0 -90 -25 -74 vhcurveto
        -81 241 rmoveto
        102 31 54 71 99 hhcurveto
        54 30 -17 -47 -86 -69 -23 -140 hvcurveto
        return
      </CharString>
      <CharString index="2">
        -70 callsubr
        -110 57 -48 107 157 98 164 190 110 -58 55 -110 hvcurveto
        -87 -466 rmoveto
        -70 -34 37 68 161 77 148 114 73 34 -46 -66 -161 -76 -141 -118 hvcurveto
        return
      </CharString>
      <CharString index="3">
        rmoveto
        -74 -44 -24 -59 -15 hvcurveto
        -10 -45 15 -19 26 -10 -32 -11 -29 -19 -13 -51 rrcurveto
        -68 -17 42 -25 68 hhcurveto
        71 51 20 77 20 hvcurveto
        12 49 -19 18 -28 9 35 9 22 22 10 43 rrcurveto
        56 14 -31 28 -74 hhcurveto
        -71 -284 rmoveto
        -37 -20 14 33 8 hvcurveto
        8 34 19 12 33 9 rrcurveto
        30 hlineto
        29 -9 11 -12 -7 -31 rrcurveto
        -36 -9 -25 -14 -40 hhcurveto
        59 238 rmoveto
        42 12 -14 -28 -7 hvcurveto
        -6 -27 -14 -11 -34 -10 rrcurveto
        -30 hlineto
        -27 10 -9 11 6 28 rrcurveto
        27 7 19 14 41 hhcurveto
        endchar
      </CharString>
      <CharString index="4">
        -61 callgsubr
        -6 -55 rmoveto
        -31 callsubr
        143 -74 64 -140 -71 -61 -27 -46 -51 vhcurveto
        -104 -96 -55 -176 -163 vvcurveto
        -150 64 -57 147 vhcurveto
        return
      </CharString>
      <CharString index="5">
        0 -88 18 -74 -113 -81 -73 -101 -66 46 -20 84 -20 vhcurveto
        75 -17 29 -9 -45 vvcurveto
        -79 -65 -36 -82 -59 -92 16 0 vhcurveto
        -11 -48 rlineto
        0 82 -21 73 119 96 59 121 73 -48 17 -89 21 vhcurveto
        -78 19 -20 12 36 vvcurveto
        58 49 51 77 vhcurveto
        return
      </CharString>
      <CharString index="6">
        rmoveto
        0 45 -11 40 89 45 42 122 30 vhcurveto
        112 28 -24 55 -77 hhcurveto
        -68 -52 -38 -69 -16 hvcurveto
        -65 -17 28 -40 63 hhcurveto
        31 41 14 0 hvcurveto
        -55 -15 -27 -28 -50 hhcurveto
        -37 -42 6 0 hvcurveto
        117 109 rmoveto
        -33 -12 25 34 8 hvcurveto
        39 10 26 20 34 hhcurveto
        43 6 -37 -64 -15 hvcurveto
        0 -40 -17 -27 vhcurveto
        endchar
      </CharString>
      <CharString index="7">
        rmoveto
        -30 -29 -5 -19 -23 hvcurveto
        -32 -24 -25 -45 -18 -71 rrcurveto
        -124 -31 35 -43 71 hhcurveto
        31 28 6 19 25 hvcurveto
        32 24 24 46 18 71 rrcurveto
        124 31 -36 41 -71 hhcurveto
        -12 -49 rmoveto
        43 11 -32 -83 -21 hvcurveto
        -91 -23 -28 -26 -39 hhcurveto
        -39 -17 26 90 23 hvcurveto
        86 22 26 30 42 hhcurveto
        endchar
      </CharString>
      <CharString index="8">
        rlineto
        44 hlineto
        22 19 -6 -30 -7 hvcurveto
        -28 -7 -17 -11 -28 hhcurveto
        -28 -39 4 0 hvcurveto
        -11 -44 rlineto
        0 37 -6 41 57 34 25 58 13 vhcurveto
        return
      </CharString>
      <CharString index="9">
        -74 callgsubr
        -37 callgsubr
        vhcurveto
        59 252 -54 callsubr
        -16 callsubr
        -9 -38 -11 -51 -43 vvcurveto
        return
      </CharString>
      <CharString index="10">
        -25 -10 55 605 55 hstem
        165 63 211 63 vstem
        591 679 rmoveto
        -19 callgsubr
        -113 -66 -68 -113 -75 -117 18 0 vhcurveto
        -11 -50 rlineto
        0 107 -23 92 150 96 91 149 91 -43 29 -99 33 vhcurveto
        -94 31 -38 15 61 vvcurveto
        107 70 53 108 70 104 -18 0 vhcurveto
        return
      </CharString>
      <CharString index="11">
        -26 -59 49 -40 hhcurveto
        -34 -60 -50 0 hvcurveto
        2 -47 rlineto
        0 57 44 21 vhcurveto
        return
      </CharString>
      <CharString index="12">
        rmoveto
        17 -500 rlineto
        65 hlineto
        -118 -224 -30 callgsubr
        374 724 rlineto
        -63 hlineto
        -229 -448 rlineto
        -34 hlineto
        -14 448 rlineto
        return
      </CharString>
      <CharString index="13">
        vstem
        17 callgsubr
        -39 callgsubr
        196 95 262 186 74 81 -16 0 vhcurveto
        14 50 rlineto
        0 -87 22 -78 -243 -106 -304 -212 -130 63 -69 127 79 89 22 0 vhcurveto
        return
      </CharString>
      <CharString index="14">
        -83 -15 41 -40 80 hhcurveto
        83 59 45 78 22 hvcurveto
        -53 hlineto
        -45 -12 -43 -30 -45 hhcurveto
        -47 -27 17 58 10 hvcurveto
        return
      </CharString>
      <CharString index="15">
        68 -10 56 649 -20 hstem
        297 695 -107 callsubr
        return
      </CharString>
      <CharString index="16">
        rmoveto
        219 87 -7 53 -218 -94 rlineto
        endchar
      </CharString>
      <CharString index="17">
        59 hlineto
        147 636 rlineto
        22 hlineto
        124 -636 rlineto
        112 hlineto
        -20 callgsubr
        -60 hlineto
        -146 -634 rlineto
        -21 hlineto
        -121 634 rlineto
        -116 hlineto
        endchar
      </CharString>
      <CharString index="18">
        rmoveto
        -63 hlineto
        -103 -89 -65 89 -54 callsubr
        98 -134 rlineto
        36 hlineto
        return
      </CharString>
      <CharString index="19">
        89 101 -22 0 hvcurveto
        16 10 callgsubr
        -99 29 -99 -244 -109 -281 -242 -131 73 -61 131 100 93 28 0 vhcurveto
        79 336 rlineto
        -177 hlineto
        return
      </CharString>
      <CharString index="20">
        -62 hlineto
        -272 -639 rlineto
        -28 hlineto
        15 629 rlineto
        -66 hlineto
        -280 -629 10 callsubr
        29 639 rlineto
        endchar
      </CharString>
      <CharString index="21">
        107 47 -48 -107 -143 -48 -183 -104 -82 hvcurveto
        return
      </CharString>
      <CharString index="22">
        76 330 rlineto
        0 95 126 74 51 23 -29 -50 -37 -10 -7 callsubr
        59 254 rlineto
        9 39 11 51 43 vvcurveto
        74 -40 49 -76 -90 -81 -108 0 vhcurveto
        return
      </CharString>
      <CharString index="23">
        rmoveto
        -51 27 -23 36 -14 vhcurveto
        -71 -24 -31 -31 -19 -85 -6 -24 -11 -68 -5 -26 rrcurveto
        hintmask 11100000
        -17 -79 -37 -43 -96 -5 -10 -55 rcurveline
        119 5 57 44 33 104 9 28 11 71 8 39 14 68 19 30 91 24 12 50 rcurveline
        -50 17 -23 20 44 38 48 121 61 vvcurveto
        72 -46 38 -95 3 vhcurveto
        -15 -56 rlineto
        66 30 -25 -49 hvcurveto
        -57 -48 -121 -41 vvcurveto
        endchar
      </CharString>
      <CharString index="24">
        68 hmoveto
        61 hlineto
        86 370 rlineto
        0 115 63 68 16 vhcurveto
        15 61 rlineto
        -91 -19 -96 -66 0 vvcurveto
        18 75 -54 callsubr
        return
      </CharString>
      <CharString index="25">
        261 0 57 134 56 79 56 258 57 hstem
        357 71 vstem
        357 hmoveto
        384 hlineto
        12 57 rlineto
        -325 hlineto
        64 269 rlineto
        270 hlineto
        12 56 rlineto
        -270 hlineto
        63 260 326 -2 12 57 rlineto
        -523 hlineto
        -355 -697 rlineto
        59 hlineto
        99 191 rlineto
        216 hlineto
        11 449 rmoveto
        97 hlineto
        -95 -393 16 callsubr
        return
      </CharString>
      <CharString index="26">
        rmoveto
        -66 hlineto
        -245 -337 -89 337 -52 callgsubr
        108 -391 return
      </CharString>
      <CharString index="27">
        -44 callgsubr
        -23 -24 callsubr
        -126 hlineto
        return
      </CharString>
      <CharString index="28">
        -73 41 -49 76 90 81 107 0 vhcurveto
        return
      </CharString>
      <CharString index="29">
        rmoveto
        156 145 -52 callgsubr
        -99 -95 -57 95 rlineto
        -55 hlineto
        85 -145 rlineto
        return
      </CharString>
      <CharString index="30">
        -41 18 -82 -120 rlineto
        21 -34 -45 10 -55 hhcurveto
        -71 -61 -27 -46 -51 hvcurveto
        -104 -96 -55 -176 -163 vvcurveto
        -72 14 -50 31 -33 vhcurveto
        -90 -133 rlineto
        128 189 rmoveto
        -14 24 -6 33 44 vvcurveto
        2 callgsubr
        45 34 -8 -18 25 hvcurveto
        return
      </CharString>
      <CharString index="31">
        rmoveto
        140 hlineto
        -5 -22 -167 -233 60 -14 169 250 18 71 16 callgsubr
      </CharString>
      <CharString index="32">
        11 callsubr
        -93 -203 rlineto
        -48 hlineto
        return
      </CharString>
      <CharString index="33">
        0 -93 -124 -75 -49 -26 29 50 return
      </CharString>
      <CharString index="34">
        rmoveto
        -22 callgsubr
        0 -93 -124 -75 vhcurveto
        hintmask 10011000
        -49 -26 29 50 -37 callgsubr
        hvcurveto
        -47 callgsubr
      </CharString>
      <CharString index="35">
        -76 callsubr
        6 51 rlineto
        -64 callsubr
        return
      </CharString>
      <CharString index="36">
        162 434 rmoveto
        -150 110 -120 150 153 108 119 151 149 -108 121 -153 -150 -110 -119 -151 vhcurveto
        40 hmoveto
        127 93 104 127 127 95 -104 -127 -128 -94 -103 -128 return
      </CharString>
      <CharString index="37">
        60 -63 callgsubr
        return
      </CharString>
      <CharString index="38">
        99 191 rlineto
        274 hlineto
        return
      </CharString>
      <CharString index="39">
        925 rmoveto
        -29 -50 178 -88 26 43 rlineto
        return
      </CharString>
      <CharString index="40">
        rmoveto
        -26 -2 callgsubr
        120 hlineto
        261 589 -16 -589 rlineto
        117 hlineto
        return
      </CharString>
      <CharString index="41">
        -97 -24 32 -44 65 hhcurveto
        64 54 44 96 24 hvcurveto
        96 24 -33 41 -65 hhcurveto
        -66 -51 -41 -95 -24 hvcurveto
        51 hmoveto
        61 15 23 31 41 hhcurveto
        42 7 -31 -62 -15 hvcurveto
        -63 -16 -23 -33 -42 hhcurveto
        -41 -7 33 64 16 hvcurveto
        endchar
      </CharString>
      <CharString index="42">
        -67 -10 54 192 49 173 51 return
      </CharString>
      <CharString index="43">
        128 hmoveto
        77 331 rlineto
        0 93 125 75 51 24 -29 -50 -37 -11 -54 -46 callgsubr
        return
      </CharString>
      <CharString index="44">
        hlineto
        116 500 8 callgsubr
        return
      </CharString>
      <CharString index="45">
        rmoveto
        266 hlineto
        12 47 rlineto
        -267 hlineto
        endchar
      </CharString>
      <CharString index="46">
        -27 -34 -41 -15 -48 hhcurveto
        return
      </CharString>
      <CharString index="47">
        26 33 39 14 43 hhcurveto
        return
      </CharString>
      <CharString index="48">
        0 81 107 90 77 40 -49 -74 -42 -11 -51 -9 -38 vhcurveto
        -16 callsubr
        -59 hlineto
        59 252 rlineto
        8 34 11 54 37 vvcurveto
        50 -24 29 -51 -75 -93 -125 0 vhcurveto
        -77 -331 rlineto
        return
      </CharString>
      <CharString index="49">
        -52 callgsubr
        -34 callsubr
        return
      </CharString>
      <CharString index="50">
        -147 -640 -30 callgsubr
        148 640 rlineto
        194 -73 callsubr
        -450 hlineto
        endchar
      </CharString>
      <CharString index="51">
        rmoveto
        115 hlineto
        -56 -238 rlineto
        0 -74 -18 -62 return
      </CharString>
      <CharString index="52">
        186 95 38 121 return
      </CharString>
      <CharString index="53">
        56 246 73 1 94 -247 rlineto
        64 hlineto
        -102 270 221 230 rlineto
        -71 hlineto
        -195 -201 -71 -2 98 425 32 callsubr
      </CharString>
      <CharString index="54">
        -39 -307 rmoveto
        -45 -33 6 15 -24 hvcurveto
        180 264 177 260 rlineto
        13 -24 7 -32 -39 vvcurveto
        -143 -48 -183 -104 -82 vhcurveto
        -61 callgsubr
        return
      </CharString>
      <CharString index="55">
        rlineto
        -62 hlineto
        return
      </CharString>
      <CharString index="56">
        -94 -52 41 95 196 85 273 196 return
      </CharString>
      <CharString index="57">
        -10 53 414 53 return
      </CharString>
      <CharString index="58">
        rmoveto
        hintmask 01100000
        0 -224 -313 -326 vvcurveto
        -149 20 -84 0 vhcurveto
        hintmask 10100000
        56 hlineto
        0 -14 91 142 vvcurveto
        305 220 334 12 callgsubr
      </CharString>
      <CharString index="59">
        182 -10 callgsubr
        -135 -797 -40 callgsubr
        return
      </CharString>
      <CharString index="60">
        59 252 -54 callsubr
        -16 callsubr
        -9 -38 -11 -51 -43 vvcurveto
        -79 callgsubr
        -80 callsubr
        endchar
      </CharString>
      <CharString index="61">
        -8 -34 vhcurveto
        -59 -252 rlineto
        return
      </CharString>
      <CharString index="62">
        74 -40 49 -77 -90 -81 -107 0 vhcurveto
        21 97 rlineto
        -58 hlineto
        -116 -500 rlineto
        return
      </CharString>
      <CharString index="63">
        -26 callgsubr
        -191 -30 callgsubr
        return
      </CharString>
      <CharString index="64">
        -104 -215 rlineto
        62 hlineto
        88 215 rlineto
        return
      </CharString>
      <CharString index="65">
        -219 -95 rlineto
        return
      </CharString>
      <CharString index="66">
        rlineto
        504 489 rmoveto
        -171 -86 -263 -170 vhcurveto
        -173 hlineto
        return
      </CharString>
      <CharString index="67">
        rmoveto
        427 690 -57 21 -426 -690 rlineto
        return
      </CharString>
      <CharString index="68">
        0 -83 -17 -79 -94 -41 47 98 return
      </CharString>
      <CharString index="69">
        rmoveto
        -77 -17 35 -56 84 hhcurveto
        return
      </CharString>
      <CharString index="70">
        37 11 54 8 34 return
      </CharString>
      <CharString index="71">
        rmoveto
        -40 callsubr
        -7 -27 -17 -17 -26 -6 rrcurveto
        -38 hlineto
        -24 6 -7 20 6 24 rrcurveto
        endchar
      </CharString>
      <CharString index="72">
        rmoveto
        176 125 -32 36 -172 -126 rlineto
        -151 -35 rmoveto
        175 125 -31 36 -172 -126 rlineto
        endchar
      </CharString>
      <CharString index="73">
        -276 rmoveto
        48 hlineto
        93 203 -8 callgsubr
        return
      </CharString>
      <CharString index="74">
        695 -52 callgsubr
        return
      </CharString>
      <CharString index="75">
        rmoveto
        204 869 rlineto
        -186 hlineto
        -14 -53 rlineto
        127 hlineto
        -179 -763 rlineto
        -127 hlineto
        -12 -53 rlineto
        endchar
      </CharString>
      <CharString index="76">
        -157 -27 rmoveto
        181 112 -31 30 -180 -115 rlineto
        return
      </CharString>
      <CharString index="77">
        rlineto
        61 hlineto
        return
      </CharString>
      <CharString index="78">
        -205 -137 -11 -31 135 -145 17 56 -91 102 return
      </CharString>
      <CharString index="79">
        rmoveto
        284 hlineto
        12 46 -11 callgsubr
        return
      </CharString>
      <CharString index="80">
        -10 53 186 52 162 48 -34 52 return
      </CharString>
      <CharString index="81">
        -69 callgsubr
        8 return
      </CharString>
      <CharString index="82">
        -31 21 -21 456 44 -44 54 return
      </CharString>
      <CharString index="83">
        rmoveto
        205 137 11 31 rlineto
        hintmask 01101100
        -135 145 -17 -56 91 -102 rlineto
        hintmask 10011100
        -136 -92 rlineto
        return
      </CharString>
      <CharString index="84">
        rmoveto
        -53 hlineto
        -116 -477 rlineto
        60 hlineto
        159 700 rmoveto
        -61 hlineto
        -23 -100 -30 callgsubr
        endchar
      </CharString>
      <CharString index="85">
        -77 -332 rlineto
        return
      </CharString>
      <CharString index="86">
        41 21 -21 270 54 317 54 return
      </CharString>
      <CharString index="87">
        160 -24 callsubr
        return
      </CharString>
      <CharString index="88">
        18 callsubr
        -62 callsubr
        vhcurveto
        89 -29 27 -16 -62 vvcurveto
        return
      </CharString>
      <CharString index="89">
        rmoveto
        182 113 -33 29 -177 -114 rlineto
        return
      </CharString>
      <CharString index="90">
        167 -82 rmoveto
        54 hlineto
        return
      </CharString>
      <CharString index="91">
        81 -56 33 -85 return
      </CharString>
      <CharString index="92">
        53 -4 53 hstemhm
        return
      </CharString>
      <CharString index="93">
        76 327 rlineto
        -62 4 callgsubr
        72 313 106 2 rlineto
        endchar
      </CharString>
      <CharString index="94">
        64 185 58 -50 57 -52 122 -115 62 74 38 201 32 hintmask 0111100101100000
        return
      </CharString>
      <CharString index="95">
        8 callgsubr
        -167 -722 rlineto
        return
      </CharString>
      <CharString index="96">
        rlineto
        -286 hlineto
        return
      </CharString>
      <CharString index="97">
        721 -81 callsubr
        return
      </CharString>
      <CharString index="98">
        rlineto
        164 hlineto
        94 37 -46 -105 hvcurveto
        endchar
      </CharString>
      <CharString index="99">
        rlineto
        -56 hlineto
        return
      </CharString>
      <CharString index="100">
        -60 callgsubr
        -86 callgsubr
        return
      </CharString>
      <CharString index="101">
        61 vstem
        200 480 rmoveto
        -28 callsubr
        return
      </CharString>
      <CharString index="102">
        -214 21 -21 449 61 return
      </CharString>
      <CharString index="103">
        198 0 52 448 -20 return
      </CharString>
      <CharString index="104">
        64 93 -14 0 hvcurveto
        return
      </CharString>
      <CharString index="105">
        -695 rlineto
        return
      </CharString>
      <CharString index="106">
        rmoveto
        -55 callsubr
        return
      </CharString>
      <CharString index="107">
        695 rmoveto
        -55 hlineto
        -53 -228 rlineto
        return
      </CharString>
      <CharString index="108">
        82 -8 callgsubr
        return
      </CharString>
      <CharString index="109">
        136 53 192 107 83 vhcurveto
        -60 callgsubr
        return
      </CharString>
      <CharString index="110">
        rmoveto
        56 4 callsubr
        return
      </CharString>
      <CharString index="111">
        hlineto
        -34 callsubr
        61 hlineto
        return
      </CharString>
      <CharString index="112">
        -107 0 52 395 53 return
      </CharString>
      <CharString index="113">
        -202 54 159 -20 return
      </CharString>
      <CharString index="114">
        12 55 -11 callgsubr
        return
      </CharString>
      <CharString index="115">
        rlineto
        -60 hlineto
        return
      </CharString>
      <CharString index="116">
        -21 226 -20 106 -20 hstemhm
        109 56 118 68 return
      </CharString>
      <CharString index="117">
        48 rlineto
        0 return
      </CharString>
      <CharString index="118">
        rlineto
        -50 hlineto
        return
      </CharString>
      <CharString index="119">
        0 vhcurveto
        endchar
      </CharString>
      <CharString index="120">
        68 hmoveto
        116 500 rlineto
        58 hlineto
        -21 -97 rlineto
        return
      </CharString>
      <CharString index="121">
        -28 callsubr
        endchar
      </CharString>
      <CharString index="122">
        rmoveto
        23 callsubr
      </CharString>
      <CharString index="123">
        16 callsubr
        endchar
      </CharString>
      <CharString index="124">
        476 63 rmoveto
        return
      </CharString>
      <CharString index="125">
        hlineto
        18 78 rlineto
        return
      </CharString>
      <CharString index="126">
        19 82 rlineto
        return
      </CharString>
      <CharString index="127">
        734 -65 callsubr
        return
      </CharString>
      <CharString index="128">
        rmoveto
        -43 callgsubr
        return
      </CharString>
      <CharString index="129">
        -210 -10 53 404 53 153 -20 hstem
        return
      </CharString>
      <CharString index="130">
        -22 callsubr
        endchar
      </CharString>
      <CharString index="131">
        483 491 rmoveto
        return
      </CharString>
      <CharString index="132">
        112 5 156 return
      </CharString>
      <CharString index="133">
        47 238 46 hstem
        return
      </CharString>
      <CharString index="134">
        50 232 49 hstem
        return
      </CharString>
      <CharString index="135">
        55 123 55 vstem
        return
      </CharString>
      <CharString index="136">
        58 19 62 39 64 return
      </CharString>
      <CharString index="137">
        30 0 745 -29 -21 50 53 0 -20 return
      </CharString>
      <CharString index="138">
        rmoveto
        67 hlineto
        -25 callsubr
        61 hlineto
        return
      </CharString>
      <CharString index="139">
        241 54 hstem
        118 295 rmoveto
        -54 return
      </CharString>
</ttFont>
